<?xml version="1.0" encoding="utf-8"?>
<!-- Generator: Adobe Illustrator 23.0.2, SVG Export Plug-In . SVG Version: 6.00 Build 0)  -->
<svg version="1.1"
	 id="Ebene_1" xmlns:cc="http://creativecommons.org/ns#" xmlns:dc="http://purl.org/dc/elements/1.1/" xmlns:rdf="http://www.w3.org/1999/02/22-rdf-syntax-ns#"
	 xmlns="http://www.w3.org/2000/svg" xmlns:xlink="http://www.w3.org/1999/xlink" x="0px" y="0px" viewBox="0 0 1600 1600"
	 style="enable-background:new 0 0 1600 1600;" xml:space="preserve">
<style type="text/css">
	.st0{fill:#A0A0A0;}
	.st1{fill:#536064;}
	.st2{fill:#3A4548;}
	.st3{fill:#BF0202;}
	.st4{fill:#029707;}
	.st5{fill:#2B2F30;}
	.st6{fill:#010202;}
</style>
<path class="st0" d="M749,1598.9c-36.9-1.9-67.6-5.7-102.5-12.5C476.3,1553,324,1467,206.6,1338C99.1,1219.8,29.6,1072.2,7,914
	c-4.9-34.1-7-68.9-7-114c0-59.5,3.9-103.1,13.5-153c27-138.9,90.6-268.5,184.2-375.2c14.8-16.9,46.8-49.3,64.3-65.2
	C380.9,98.8,527.7,29.7,686,7c34-4.9,69-7,113.5-7C845,0,879.9,2.1,914,7c184.7,26.4,352.7,115.8,479.4,255
	c107.6,118.2,177,265.7,199.6,424c4.9,34.1,7,68.9,7,114c0,45.1-2.1,79.9-7,114c-21.9,153.4-87.7,296.4-190.4,413.8
	c-14.9,17-46.8,49.4-64.6,65.5c-118.7,107.7-265.8,177-423.5,199.5c-24.1,3.4-37.5,4.7-67,6.1C823.6,1600.1,772.1,1600.1,749,1598.9
	L749,1598.9z M849,1563c55.8-3.9,106-12.4,156.5-26.5c169.9-47.6,314.6-149.6,418.7-295.1c58-81.1,100.5-176.9,122.3-275.9
	c7.2-32.5,12.2-65.9,15.7-104l1.3-14v-95l-1.3-14c-4.9-52.9-13-98.6-25.6-143.5c-35.6-127.2-102.2-241.4-195.5-334.9
	C1230.2,149,1090.6,75.8,935.7,47.5c-17.6-3.2-45.2-6.9-68.2-9.2l-18-1.8h-99l-18,1.8C683,43.2,641,50.8,598,62.6
	C420,111.3,267.6,221.5,163,377c-30.1,44.7-58.2,99.4-78,151.9c-25.5,67.5-40.1,132.2-47.3,209.6l-1.3,14v95l1.3,14
	c9.3,100.2,32.6,185.7,74,271.8c62.8,130.3,166.7,244.7,290.7,319.9c105.7,64.1,222,100.9,346.5,109.7
	C765.9,1564.1,832.2,1564.1,849,1563L849,1563z M234.6,1295.7l-1.5-2.2l0.9-29c2.4-80.3,13.7-155.2,34.6-230.4
	c6.8-24.4,21.1-67.3,29.8-89.2l6.6-16.6l-4-11.8c-2.2-6.5-4-13-4-14.5v-2.6l4.2-3.8l18.3-0.7l12.7-25.6c12.3-25,23-44.7,33.6-62.3
	c2.9-4.8,5.2-9.1,5.2-9.7c0-1.1-25.4-26.3-27.1-27l-0.9-0.3v57.3l-4.9,4.9h-35.2l-1.8-1c-1-0.5-2.3-2.4-2.9-4.1l-1.1-3.2l0-53.1
	l0-53.1l-3.6-4.5c-74.4-92.7-115.2-195.1-119-298.7l-0.7-18.2l2.6-3.1H296l1.4,2.2l1.4,2.2l0.6,17c0.3,9.4,0.9,19.8,1.3,23.2
	l0.6,6.2H508l2,2c2.9,2.9,3.2,5.2,2.8,23l-0.3,16.2l-2.8,2.4l-2.8,2.4H343v92.3l5.6,10.5c3.1,5.8,6.5,11.8,7.6,13.3l2,2.8h138.7
	l4.1,5.3V630h1c0.5,0,7.4-6.2,15.3-13.8c7.9-7.6,18.7-17.8,24-22.8l9.7-9l0-3.2l0-3.2l4-4h8.9l10.3-8.3
	c79.9-64.3,167.1-112.5,261.2-144.4c65.3-22.1,124.4-34.3,201.6-41.5l12.5-1.2l100-0.5l15.3-14.3c16.4-15.3,34.7-35.6,38.3-42.4
	l2.2-4.1l-3.7-4.8c-2-2.7-4-5.9-4.3-7.2c-0.8-3.2,1.1-7,4.1-8.4l2.5-1.1l2.2,1c4.5,2.1,17.7,13.4,19.3,16.4l1.6,3.2l-1.1,3.7
	c-1.2,4-15.2,26.3-22.8,36.3c-2.6,3.4-8.3,10.4-12.6,15.5c-4.3,5.1-7.8,9.4-7.6,9.6c0.2,0.2,8.7,1.3,18.8,2.5
	c70.5,8.6,139.1,26.3,208,53.8c13.5,5.4,14,5.7,14,9.1c0,1.4-6.7,20.4-14.9,42.1l-14.9,39.5l-2,1.3l-2,1.3l-18.3-7.2
	c-69.7-27.3-139.4-43.3-216.3-49.6l-20-1.6l-74-0.2l-12,5.4c-6.6,3-13.3,6.2-15,7.2c-5.1,2.9-26,11.5-48.7,19.9L964,513l-18.3,4.4
	c-10,2.4-20.6,4.7-23.4,5.1l-5.2,0.7l-13.8-4.2l-4.4-4.9c-2.4-2.7-5.5-6.3-6.9-8.1l-2.5-3.3l-11.5,3.7c-68,22-133.9,53.6-189.4,90.7
	c-10.2,6.8-10.6,7.2-10.6,10.8c0,1.4-1,3.6-2.2,4.9l-2.1,2.3l-10-1l-13.9,10.4c-14.1,10.5-46.8,37.3-50.1,41l-1.8,2l-1,5.9l-1,5.9
	l0,144.6l-2.9,6.9l-2.3,0.5c-1.3,0.3-5.2,0.6-8.8,0.8l-6.5,0.3l9,6.1c5,3.4,14.6,9.6,21.5,13.9c140.7,88,317.3,152.5,513.5,187.3
	l22,3.9l8.3-5.5c35.1-23.3,82.9-25.5,121.1-5.7c11.3,5.8,19.8,12.4,29.8,22.7l8.1,8.4l16.9,1.1c9.3,0.6,26.8,1.6,38.9,2.1
	s26.2,1.2,31.3,1.4l9.3,0.4l2.9,2.4v71.5l-1.5,1.2l-1.5,1.2l-31.3-1.2c-17.2-0.7-32.4-1.3-33.7-1.4l-2.4-0.1l-0.2,13.5
	c-0.3,15.8-1.6,26.8-5,39.6c-4.6,17.8-13.2,35.5-23.5,49c-5.6,7.2-19.3,20.2-26.5,25.1c-39.1,26.5-93.1,27-132.5,1.2
	c-30.5-20-50.3-54.2-55.5-95.8c-2.3-18-1.7-31.5,2.1-55.6l0.6-4l-7.9-1.3c-4.3-0.7-17.2-3.1-28.5-5.2s-20.9-3.9-21.2-3.9
	c-0.3,0-0.6,39.2-0.6,87v87l-2,2c-2.9,2.9-5.3,3.2-21.4,2.9l-14.6-0.3l-4.5-4.6l-0.3-92l-0.3-92h-1.6c-2,0-45-10.5-68.2-16.6
	l-17.3-4.6l-2.4,0.6c-3.6,0.9-13.6,11.2-17.6,18.1c-3.9,6.7-7.1,14.6-9.6,23.9l-1.6,6.1l-0.6,78.2l-0.6,78.2l-4.6,4.6h-34.1
	l-1.8-2.2l-1.8-2.2l-0.6-107.8c-0.3-59.3-0.9-110.6-1.4-114.1l-0.8-6.4l-18.5-6.4c-81.3-28.1-145.5-55.4-212.2-90.1
	c-9.9-5.2-18.6-9.2-19.3-9c-0.7,0.2-26.5,74.9-57.5,165.8c-31,90.9-57,166.6-57.7,168.2c-0.8,1.5-2.6,3.3-4.1,3.8l-2.7,1l-33.5-0.6
	l-1.9-2l-1.9-2L388,1177c-18.9-56.4-34.6-102.9-35-103.3c-1.1-1.2-3.4,7.4-9,32.8c-12,54.4-18.1,104.2-19.9,160.8l-0.9,27.8l-2.5,3
	H236L234.6,1295.7z M1237.5,1244c28.9-9.2,48.1-32.1,55-65.5c2-9.7,3-29.5,1.8-35l-0.9-4l-15-1.2c-34.9-2.9-79.9-7.8-117.7-13
	c-10.8-1.5-20-2.4-20.4-2c-1.6,1.6-3.5,13.4-4.1,25.2l-0.6,13l1.2,8.8c3.4,25.5,14.2,46.7,30.6,60c7.7,6.2,22,13.2,31,15.2l7,1.5
	l25-0.7L1237.5,1244z M493.3,1063.9c25.7-77.3,46.7-141.2,46.7-142l0-1.4l-14.7-9c-18.1-11-52.6-34.1-68.7-45.8
	c-6.6-4.8-12.5-8.7-13.2-8.7c-1.9,0-15.8,24.8-31.9,57c-10,19.9-23.9,51.8-31.4,71.7l-4.2,11.2l34,103.3
	c18.7,56.8,34.3,104,34.6,104.8l0.5,1.4l0.8-0.9C446.3,1204.9,467.7,1141.2,493.3,1063.9L493.3,1063.9z M553,764
	c0-28.6-0.3-52-0.8-52c-2.5,0-52.2,58.9-52.2,61.8v1.7l9.8,8c8.5,7,29.7,23.5,38.8,30.1c1.7,1.2,3.3,2.2,3.8,2.2S553,792.6,553,764
	L553,764z M441.2,698.7c9.9-12.2,32.8-38.7,35.1-40.6c0.9-0.8,1.7-1.8,1.7-2.2V655h-45c-24.8,0-45,0.3-45,0.7
	c0,1.3,14.5,20,26.4,34.2c6.6,7.9,12.9,15.4,14,16.8s2.5,2.4,3.2,2.4S436.6,704.4,441.2,698.7L441.2,698.7z M945.2,512.6l18.3-4.4
	l20.5-7.6c43.3-16.1,77.6-32.4,105.6-50.1l10.1-6.4l18.9,2.1l30-1.1l7.5-1.9c7.4-1.9,27.3-9.6,29.8-11.5c0.7-0.5,1.2-2,1.2-3.3v-2.3
	l-3.1-2.6c-6.5-5.5-13.6-7.3-31.4-7.9l-9-0.3l-0.3-1.5l-0.3-1.5l12.2-10.9c13.8-12.4,30.7-30.5,41.1-43.9c8-10.3,21-30,24.1-36.4
	l2.1-4.3l-1.1-1.7c-1.3-2.2-16.1-14.2-17.4-14.2c-0.6,0-1.3,0.7-1.6,1.5l-0.6,1.5l4.1,5.9c2.3,3.2,4.1,6.7,4.1,7.8
	c0,5.2-16,24.5-36.5,44.3c-17.4,16.7-42.8,39.9-55.8,50.9l-9.8,8.3l-13.8,4.3c-7.6,2.4-17.8,5-22.7,5.9c-29.1,5.3-43.1,7.6-52.3,8.7
	l-10.3,1.2l-1.4-1.4c-2.5-2.5-15.5-27.1-15-28.4c0.3-0.7,3.8-3.4,7.8-6.1l7.3-4.8l0.4-1.9c0.4-2.3-1.4-3.6-5.4-3.6l-3,0l-10.7,6.2
	c-5.9,3.4-14.5,8.4-19.2,11.1c-4.7,2.7-10,6.1-11.7,7.6l-3.2,2.7l1.3,3.3h2.5c1.4,0,4.3-0.7,6.6-1.6l4.1-1.6l0.9,0.9
	c0.5,0.5,3,6.3,5.5,12.9c2.5,6.6,4.9,12.3,5.3,12.7c1.3,1.3,11.3,1.1,30.2-0.6c10.2-0.9,26.5-2.4,36.4-3.2l17.9-1.6l1,1l1,1
	l-6.9,4.4c-14.1,9.1-27.2,16-42.3,22.7c-8.6,3.8-23.7,10.4-33.6,14.8c-9.9,4.4-25.9,10.6-35.5,13.8l-17.5,5.9h-16l-2.9-1.5
	c-1.6-0.8-4.8-3.8-7-6.6c-5.8-7.3-11.2-9.3-13-4.7l-0.6,1.6l3.2,5.3c1.8,2.9,5,7.1,7.1,9.3l3.9,4.1l9.3,3l5.7-0.5
	C924.3,517.3,935.1,515,945.2,512.6L945.2,512.6z M1000.3,487.7c0.6-1.9,5.9-4.6,21.7-11.2l14.6-6.1l16.7-9.9
	c26.6-15.8,31.8-18.4,36.8-18.4l1.5,0l-3.1,2.8c-4.6,4.2-21,13.6-36.4,20.8c-7.4,3.5-16.9,8.1-21,10.2c-7.8,4-23.5,10.7-28.3,12.1
	l-2.8,0.8L1000.3,487.7L1000.3,487.7z M984.8,444.8c-1.5-1.2-8.8-19.3-8.8-21.9c0-1.3,9.8-6.2,11.7-5.8c1.6,0.3,14.3,22.9,14.3,25.3
	c0,2-0.8,2.3-8.5,3l-7,0.7L984.8,444.8z M1121,441.3c-3.6-0.2-6.9-0.8-7.5-1.4l-1-1l6.4-5.9l-0.6-1.6c-0.3-0.9-2.3-2-4.5-2.6
	c-2.1-0.6-3.9-1.5-3.9-2c0-2.8,13.6-5.6,31.4-6.6l11.1-0.6l9.5,1.2c5.2,0.6,11.4,2,13.8,3.1l4.4,1.9l-0.3,1.8l-0.3,1.8l-9,3.8
	C1156.3,439.4,1138,442.3,1121,441.3L1121,441.3z M1124.5,415.1c-0.3-0.5,1.1-2.4,3.1-4.2c10.3-9.1,14.9-13.3,27.3-24.8
	c7.4-6.9,18.8-17.6,25.3-23.8s12.3-11.2,12.8-11.2h1l-1.2,2.2c-4.1,7.7-26.6,31.8-45.3,48.5c-7.7,6.8-15,12.8-16.3,13.3
	C1128.2,416.3,1125.3,416.2,1124.5,415.1L1124.5,415.1z M948.6,496.6c10.5-3.5,22.9-8.3,27.5-10.5l8.4-4.1l-5.5,0.5
	c-11.6,1.1-65.9,13-67.7,14.8c-0.9,0.9,1.6,3.7,4.1,4.7c1.1,0.5,4.7,0.9,8,0.9l6,0.1L948.6,496.6L948.6,496.6z M647.9,1288.9
	c-13.9-1.8-31.2-8.3-39.9-15.1c-13.6-10.5-23.2-25-27.6-41.5l-1.8-6.9l-0.1-29l3.5-16l4-8.2l4-8.2l7.7-8.2
	c4.2-4.5,10.3-10,13.6-12.2c13.8-9.4,32.7-16.2,53.2-19.2c10.9-1.6,42.2-3.5,57.7-3.5l9.8,0l0-9.2c0-15.5-3.4-25.9-11.1-34.3
	c-5.1-5.5-10.4-8.7-20.5-12l-7.9-2.7l-10.2-0.5l-10.2-0.5l-7.6,1.2c-15.9,2.6-28.9,8.5-42.4,19.3l-8.4,6.8h-5.3l-2.6-2.8
	c-1.4-1.5-6-7.2-10.2-12.7l-7.6-10v-6.3l7.3-6.9c16-15.2,38.7-25.5,65.7-30l9.5-1.6l13,0.5c20,0.8,34.9,4.7,49.4,12.9l7.5,4.2
	l16.1,16l3.8,7.2c4.3,8.2,7.1,15.8,9.3,25.3l1.5,6.5l0.8,68.5c0.5,37.7,1.3,75.7,1.9,84.5s1.4,20.3,1.7,25.5l0.6,9.5l-4.5,4
	l-13.1,0.3c-7.2,0.2-14.6,0-16.4-0.3l-3.4-0.6l-1.5-2.3c-0.8-1.3-2-6.3-2.6-11.2c-0.6-4.9-1.2-9.1-1.5-9.3c-0.2-0.2-4.2,3.2-8.8,7.6
	l-8.4,8l-7.9,4.1C691.7,1288.3,669.6,1291.7,647.9,1288.9L647.9,1288.9z M686.5,1244.5c3.3-0.9,9.2-3.3,13-5.3l7-3.6l13.2-13.1
	l4.1-8.5c2.2-4.7,4.8-11.9,5.7-16l1.6-7.5l0.6-14.8l0.6-14.8l-14.4,0c-35.5,0-60.3,4.4-75.8,13.2c-7.3,4.1-15,12-18.1,18.3l-2.4,5
	l-0.1,22l2.9,5.8c4.9,9.6,14.2,16.7,26.8,20.2l5.2,1.5l24-0.9L686.5,1244.5L686.5,1244.5z M1010.8,965.7
	c-11.6-3.2-19.5-13-21.3-26.3l-0.7-5.2l1.6-6.2c2.7-10.7,9.5-18.4,19.1-21.7l4.7-1.6l5.7,0.5c7.4,0.7,12.7,3.5,18.3,9.6l4.5,5
	l1.8,5.7l1.8,5.7l-0.9,14.3l-2.2,4.2c-4.9,9.6-13.2,15.7-22.8,16.7l-4.9,0.5L1010.8,965.7z M781.5,836c-31.6-6.6-56.7-25-74.2-54.2
	c-7.6-12.7-14-31.2-17.4-50.7l-1.3-7.5l0.1-42l1.8-9c4.1-21,10.9-38.2,21.2-53.7l6.8-10.3l8-8c17.1-17.1,36.7-27.5,59.5-31.5
	c3.5-0.6,12.3-1.1,19.5-1.1l13.1,0.1l9.1,1.9c36.1,7.6,66,35,78.8,72.5c1.5,4.3,3.6,11.8,4.7,16.5l2,8.6l0.5,23.1l0.5,23.1l-5.5,4.3
	H732.1l-0.6,0.9c-1.1,1.8,3.6,21.7,6.9,29.4c5.1,11.9,9.3,18.3,17.5,26.7l7.5,7.6l14.1,8.3l15.9,4.1l23,0l8-2.1
	c19.7-5.2,35.3-16.2,46.4-32.9c2.3-3.5,5.2-6.7,6.4-7.1l2.2-0.8l2.5,0.9c1.4,0.5,7.6,5.8,13.9,11.7l11.4,10.8v6.2l-5.9,8.8
	c-17.2,25.5-40.7,40.2-73.6,46l-8.3,1.5l-29-0.1L781.5,836L781.5,836z M871,672.7c0-4.4-4.2-17.3-8.1-24.7
	c-9.4-18-25.1-30.7-44.1-35.7l-6.4-1.7l-9.5,0c-12,0-19.6,1.6-28.5,5.8c-19.5,9.3-36.3,31.6-41.9,55.7L732,675h139L871,672.7
	L871,672.7z M1047.3,836.5c-40.4-7.3-73.9-37.7-87.6-79.6c-3.9-12-6.5-25.4-7.7-40.2l-1.1-13.7l1.1-13.7c2.8-35.7,14.8-64.4,36-86.7
	c24.1-25.4,55-37.2,90-34.5c48.5,3.8,85.6,39.2,97.1,92.7l2.1,9.7l0.6,21.2l0.6,21.2l-2.6,2.6l-2.6,2.6H994.7l0.6,5.3
	c2.4,20.4,11.9,40,25.9,53.4c14.4,13.8,26.6,18.4,48.3,18.4l11,0l7.6-2c18.9-4.9,36.4-17.4,46.4-33.1l3.9-6.1l2.5-0.7
	c4.8-1.3,5.8-0.6,20.8,13.9l9.2,9v5.4l-5.5,8.2c-11.2,16.7-24.2,28.2-41,36.3c-11.2,5.4-20.6,8.4-32.8,10.5l-8.2,1.4l-14.5-0.1
	C1061,837.9,1051.3,837.2,1047.3,836.5L1047.3,836.5z M1134.3,674.3c0.2-0.4-0.2-3.9-1-7.8l-1.4-7l-10.3-20.9l-16.2-16.1l-7-3.6
	c-9.2-4.8-15.2-6.7-24.3-7.9l-7.5-0.9l-8.7,1c-16.3,1.8-28.1,8-40.3,20.9c-9.9,10.5-19,27.4-21.2,39.3l-0.7,3.8h69.1
	C1102.8,675,1134.1,674.7,1134.3,674.3L1134.3,674.3z"/>
<path class="st1" d="M756.5,1598.9c-236.1-12.5-455.1-129.9-597.7-320.6C55.7,1140.5,0,972.8,0,800c0-252.8,118.7-489.4,321.7-641.2
	C423.1,83,541.3,32.4,666.5,11.1c18-3.1,48.5-6.8,71.5-8.8l20.5-1.8l83,0L862,2.4c22.9,2,53.4,5.7,71.5,8.7
	c202.9,34.4,384,145.2,507.7,310.6c119.5,159.8,174.7,358.5,154.7,557.8c-21.1,211-123.1,401.9-287.7,538.3
	c-44.5,36.9-98.2,71.7-152.1,98.7C1033.9,1577.6,895,1606.2,756.5,1598.9L756.5,1598.9z M850.5,1564
	c229.1-14.7,438.4-131.7,573.5-320.4c71.3-99.7,118.2-217.7,134.5-338.8c3.6-26.9,5.4-48,6.6-78l1.1-26.8l-1.1-26.8
	c-4.6-115.5-30.9-217.8-82.1-319.2c-67.6-134-178-249.2-309-322.2C1073.8,75.9,966.6,44.2,850,36c-21.4-1.5-78.9-1.5-100,0
	c-69.8,5-133,17.6-195.4,38.8C400.7,127,270.5,224.3,174.9,358.2C100.4,462.6,53.1,587.1,39,715.9c-3.3,30.3-4.3,49.5-4.3,84.1
	s1,53.8,4.3,84.1c14.1,129.6,61.5,253.9,137,359.4c53.4,74.6,119.1,139,193.5,189.7c112.9,76.9,246,122.5,381.5,130.8
	C783.7,1566,818.9,1566,850.5,1564L850.5,1564z M235.6,1294.8l-1.4-2.2l0.9-28c2.4-79.2,13.8-154.6,34.6-229.4
	c6.8-24.5,21.1-67.3,29.8-89.4l6.7-16.8l-4.1-12.2c-4.6-13.7-4.8-15.7-2.2-18l1.8-1.7h16l1.7-1.2c0.9-0.7,7.5-13,14.6-27.2
	c12.7-25.6,23.5-45.5,34-62.8c2.9-4.8,5.2-9.1,5-9.5c-0.8-1.7-28.6-28.2-29.7-28.2H342v57.7l-4.1,5.3h-34.6l-4.2-3.5l-0.5-110.3
	l-3.3-4.1c-75.2-93.5-115.4-194.6-118.9-298.4l-0.7-19.8l120.8,0.5l0.2,8c0.3,10.4,2.2,36.4,2.9,39.2l0.6,2.2h206.6l4.3,3.5l-0.3,19
	l-0.3,19l-5,2.5L342,489v94.3l5.6,10.5c3.1,5.8,6.5,11.8,7.6,13.3l2,2.8l69.2,0c38,0,69.7,0.3,70.3,0.8c0.6,0.4,1.6,1.7,2.2,2.9
	l1.1,2.2v17.2l1.9-1c1-0.6,8.6-7.4,16.8-15.3c8.2-7.8,19-18.1,24.1-22.8l9.2-8.5l0-3.7l0-3.7l4.4-3.1h8.1l7-5.6
	c54.3-43.6,100.1-73.3,157.5-102c99.3-49.6,192-75.6,309-86.6l12.5-1.2l99.7-0.5l6.6-6.3c32.9-31.5,49.1-49.6,49.1-54.9
	c0-0.9-1.8-4-4-7l-4-5.4l0.3-2.4c0.2-1.3,1.5-3.3,2.9-4.4l2.6-1.9l2.9,1.5c4.6,2.4,16.8,13,18.1,15.9l1.2,2.6l-1.1,3.4
	c-2.8,8.3-25.1,40.2-37.7,54.1c-3.4,3.7-6.1,7.1-6.1,7.5s8.7,1.8,19.2,3.1c70.7,8.5,139.6,26.3,208.8,53.9c12.7,5.1,14,5.8,14,8
	c0,1.8-28.9,79.2-30.3,81c-0.5,0.7-1.7,1.2-2.7,1.2s-10.3-3.3-20.6-7.4c-67.1-26.2-136.8-42-212.8-48.3l-20-1.6l-77-0.1l-16,7.8
	c-15.9,7.7-40.6,18.6-42.2,18.6c-0.5,0-7.2,2.5-15,5.5c-7.8,3-17,6.4-20.5,7.5c-6.6,2.2-36.4,9.4-43.4,10.5l-4.1,0.7l-4.9-1.2
	c-7.3-1.8-11.7-4.5-16-10.1c-2.1-2.8-4.6-6-5.5-7.1l-1.6-2.1l-7.7,2.3c-14.2,4.2-47.8,16.3-66,23.9c-44.4,18.4-89.9,42.7-128,68.3
	l-10.4,7l-0.6,2.7c-0.3,1.5-1.1,3.9-1.8,5.2l-1.3,2.5h-11.9l-14.5,11c-20.8,15.7-47.1,37.8-49.8,41.8l-2.3,3.4l-1.9,24.8l0,66.7
	l0,66.7l-4.4,3.1h-7.7c-4.2,0-8,0.4-8.3,0.9c-0.3,0.5,5.6,4.9,13.2,9.9c119.6,78.3,265.3,138.8,428.1,177.8
	c35.3,8.5,80.8,17.9,110.7,23l16,2.7l6.7-4.7c15.4-10.8,35.2-17.7,56-19.7l11.7-1.1l11.3,1.2c30.6,3.2,52.5,13.9,74.3,36.5l8,8.3
	l9,0.6c13.7,0.9,64.7,3.5,76.2,3.9l10.2,0.3l2.1,2.1l-0.3,34.9l-0.3,34.9l-21.5-0.3c-11.8-0.2-27.3-0.6-34.3-1l-12.8-0.7l-0.8,1
	c-0.4,0.6-1,9.3-1.3,19.5l-0.5,18.5l-2.5,10.5c-8.3,34.9-26.2,62.4-52,79.4c-16.4,10.9-32.7,16.5-53.9,18.7l-11.8,1.2l-11.2-1.1
	c-6.2-0.6-15.5-2.3-20.8-3.7l-9.5-2.5l-11-5.4c-13.2-6.5-21.4-12.6-31.8-23.5c-20.8-21.8-32.9-50.5-35.7-85.1l-1.1-13.6l1.1-12.6
	c0.6-6.9,1.6-15.7,2.3-19.6s1-7.3,0.7-7.6c-0.3-0.3-11.7-2.6-25.4-5.1c-13.7-2.5-26.5-4.9-28.4-5.3c-2-0.4-4.1-0.6-4.8-0.4l-1.2,0.4
	v173.6l-1.9,2.4l-1.9,2.4l-13.1,0.4c-14.5,0.4-19.2-0.2-21.5-2.5l-1.5-1.5V1097l-2-2c-1.1-1.1-2.8-2-3.8-2
	c-1.9,0-60.6-14.5-74.7-18.4l-8.9-2.5l-3.3,1.6c-1.8,0.9-6.2,4.7-9.8,8.4l-6.5,6.9l-4,8.3c-5.1,10.6-7.9,21.7-9.1,36.5l-1,11.8
	l0,66.7l0,66.7l-1.5,1.5c-2.3,2.3-7,2.8-21.5,2.5l-13.1-0.4l-3.6-4.5l-0.5-109.8c-0.3-60.4-0.9-111.8-1.4-114.2l-0.8-4.5l-15-5.2
	c-58.7-20.5-95-34.5-138-53.5c-20.3-8.9-54.5-25.5-78.9-38.1l-18.9-9.8l-1.3,1.3c-0.7,0.7-26.8,76.2-57.9,167.8l-56.7,166.5l-3.9,4
	h-35.1l-4.2-5l-34.6-103.4c-19-56.9-35-103.6-35.6-103.8l-1.1-0.3l-3.2,12.8c-15,60.2-23.2,119.8-25.1,183.5l-0.9,27.8l-2.5,3H237
	L235.6,1294.8z M1239.4,1244.6c36.5-12.4,58.3-49,56.4-94.7l-0.4-10.2l-3.2-2.4l-16-1.2c-31.1-2.4-80.3-7.8-116.7-12.8l-18.9-2.6
	l-1.2,1.7c-0.7,0.9-1.8,4.7-2.6,8.4l-1.4,6.7l0.2,37l5.3,20l5.1,10.3l5.1,10.3l7.9,8.3c11.7,12.4,24.1,19.7,39.4,23.2l6,1.4l27-0.7
	L1239.4,1244.6L1239.4,1244.6z M494.3,1064.6c26.1-78.6,47.3-143.4,47.1-144s-7-5.1-15.1-10c-18.4-11.2-52.7-34.1-69.4-46.3
	c-6.9-5.1-13.1-9.2-13.7-9.2c-3.3,0-35.3,60.8-49.9,94.8c-8.1,18.9-18.3,44.9-18.3,46.7c0,1.2,68.8,210.4,69.7,211.8l0.6,0.9
	l0.8-0.8C446.5,1207.9,468.2,1143.2,494.3,1064.6L494.3,1064.6z M553.8,763.7L554,710l-1.3,0c-2.5,0-51.2,56.6-54.1,62.8l-1.1,2.5
	l3.5,3c16.4,13.9,50.1,39.8,51.5,39.4l1-0.3L553.8,763.7L553.8,763.7z M443.3,698.3c5.7-7,15.6-18.5,21.8-25.6
	c6.3-7.1,12.3-13.9,13.4-15.3l2-2.5l-3-1.9l-44.2,0c-24.3,0-44.9,0.3-45.8,0.6s-1.6,1-1.6,1.5c0,3.2,43.1,55.8,45.7,55.8
	C432.3,711,437.6,705.3,443.3,698.3L443.3,698.3z M946,513.7l18.5-4.6l19-7.1c45.9-17.1,78.9-33,112-53.8l5-3.2l6,1
	c3.3,0.5,12.3,1,20,1c20.9,0.1,31.6-2,49.5-9.6c9.6-4.1,13-6.4,13-8.6c0-0.5-1.8-2.8-4.1-5.3l-4.1-4.4l-4.9-1.6
	c-2.7-0.9-11.1-2.1-18.7-2.8l-13.8-1.2l4.5-4c10.2-9,40.1-39.6,46.4-47.5c7.2-9.1,24.6-34.8,27.3-40.4l1.6-3.4l-1.3-5l-16.5-13.2
	l-4,0.5l-0.3,2.2l-0.3,2.2l4.1,5.7c2.2,3.1,4.1,6.4,4.1,7.4c0,2.3-6.5,11.3-16,22.3c-11.5,13.4-58.6,57.4-79,74l-7.5,6.1l-11.5,3.7
	c-12.8,4.1-18.6,5.4-47.5,10.4c-23.5,4.1-36.7,5.8-38.6,5.1c-0.8-0.3-3.6-4.7-6.3-9.8c-2.7-5.1-6-11-7.3-13.1l-2.4-3.8l1.8-2
	c1-1.1,4.4-3.5,7.6-5.5c3.2-1.9,6.2-4.3,6.8-5.3l0.9-1.8l-1.6-2.3l-1.6-2.3l-9.3,0.9l-5.5,3.5c-3,1.9-9.5,5.7-14.5,8.3
	c-10.9,5.9-23.1,14-23.8,15.7c-0.3,0.7-0.1,2.1,0.4,3l0.9,1.8l3.7,0c2,0,4.8-0.7,6.2-1.5s3-1.4,3.6-1.5s3,5.3,5.4,11.7
	s5.1,12.6,6.1,13.7l1.8,1.9l5.8,0.1c3.2,0,14.6-0.8,25.3-1.7c42.4-3.9,49.5-4.5,50.3-3.7c1.7,1.6-25.7,17.3-43,24.7
	c-7,3-15,6.6-17.8,7.9c-23.2,11.3-64.2,26.7-75,28.1c-2.4,0.3-6.5,0.3-9.2-0.1l-4.8-0.7L899.2,491H897c-2.8,0-5.9,2.7-5.9,5
	c0,2.4,9.4,15.4,13.2,18.4C912,520.2,920,520.1,946,513.7L946,513.7z M1046,466.7c0-0.6,22.2-14.4,25.6-15.9
	c1.6-0.7,4.5-2.3,6.5-3.6l3.7-2.4l4.7,0.7l-8.5,5.1C1062.6,460,1046,468.3,1046,466.7L1046,466.7z M985.8,443.8
	c-1.9-1.4-9-19.5-8.2-20.8c0.9-1.4,9.4-5.1,10.4-4.5c0.5,0.3,3.7,5.8,7.1,12.2l6.2,11.6l-0.9,0.8c-0.5,0.4-3.6,1.1-6.9,1.5l-6,0.7
	L985.8,443.8z M1115.6,439.2c-0.3-0.5,0.6-1.8,1.9-3s2.5-2.8,2.5-3.5c0-1.6-2.7-4.1-5.3-5c-5.3-1.9,3.1-4.1,21.9-5.7l13-1.1
	l10.8,1.1c6,0.6,12.4,1.7,14.3,2.5l3.4,1.4l-0.3,1.6l-0.3,1.6l-8.5,3.5c-4.7,1.9-12.6,4.4-17.5,5.4l-9,1.9l-13.2,0
	C1122.1,440,1115.9,439.6,1115.6,439.2L1115.6,439.2z M1127.2,413.9c0.2-0.8,7.1-7.5,15.4-15s21.5-19.7,29.4-27.2
	c21.9-20.7,19.7-15.4-3.4,8.2c-13.4,13.6-35.9,34.1-37.5,34.1c-0.5,0-1.7,0.3-2.6,0.6l-1.7,0.6L1127.2,413.9z M946.3,498.7
	c21.5-7.1,46.9-17.8,45.5-19.2c-1.2-1.2-55.8,9.6-75.1,14.8l-7.8,2.1l0.3,1.5c0.2,0.9,1.8,2.6,3.7,3.8l3.4,2.3H930L946.3,498.7z
	 M650,1288c-34.9-4.1-59.8-24.1-68.2-54.7l-2.1-7.8l-0.1-29l1.7-7.4c3.6-15.1,8.4-24,19.2-34.7c22.5-22.5,53.9-31.4,110.7-31.4h20.7
	l1.1-2.1l1.1-2.1l-2.1-22.3l-2-5.7c-3.9-11.3-10.6-18.4-22.6-23.8c-17.7-8-42-8-62.3,0.1c-7.6,3-21.6,11.5-24.8,15
	c-1,1.1-3.4,3-5.2,4.1l-3.3,2.1l-4.7-1.2l-9.1-12l-9.1-12v-5l3.9-4.3c2.2-2.3,7.5-6.8,11.8-9.9c18.4-13.2,42.6-21.6,67.4-23.4
	l9.5-0.7l10.3,1.2c14.7,1.7,24.1,4.4,36.1,10.2l10.5,5.1l18.2,18.3l4.2,8.5c4.5,9.3,7.7,20.3,9.2,32l1,7.5l0,49
	c0,51.4,1.1,90.4,3.1,111.6c0.6,6.9,0.9,13.8,0.5,15.2l-0.7,2.6l-3.8,1.1l-3.8,1.1l-25.3-0.7l-4-4l-1.2-10.2
	c-0.6-5.6-1.5-10.2-1.9-10.2s-3.8,3.1-7.6,6.8c-15.7,15.6-32.7,22.4-58.5,23.6C662.2,1288.7,654.1,1288.5,650,1288L650,1288z
	 M686.7,1245.7c13.1-3.7,24.8-11.5,32.4-21.7l4.9-6.5l3-7.7c3.3-8.6,5.6-21.2,6.4-36.8l0.6-10.5l-1.8-2.8l-46.7,1.1l-9.5,1.5
	c-19.7,3.1-34.8,9.4-44.2,18.4l-5.8,5.5l-5.5,11.2v22l2.7,5.7l2.7,5.7l4.6,4.5c4.9,4.8,12.4,8.9,20.2,11.2l4.8,1.4l26-0.8
	L686.7,1245.7z M1013.4,964.9c-11.9-2.1-20.2-11-22.3-24l-0.8-4.8l0.9-5.6c1.1-6.9,3-10.8,7.7-15.7c4.6-4.8,9.9-7.6,16-8.3l4.8-0.6
	l10.9,3.2l8.3,7.1l2.8,5.7l2.8,5.7v17l-2.3,4.6c-2.5,5.1-8.3,11.3-12.6,13.6C1025.7,964.8,1018.3,965.8,1013.4,964.9L1013.4,964.9z
	 M785,835.6c-27.1-4.6-51.8-19.9-69.1-42.8c-5.9-7.9-15.3-25.8-18.3-35c-11-33.5-11.3-72.5-0.9-105.2c13.7-43.2,47.2-74.4,88-82.1
	l8.9-1.7l30,1l8.4,2.1c33.1,8.4,60.6,34.7,73.3,70.1c1.1,3,3.1,10.2,4.5,16l2.5,10.5l0.5,22.1l0.5,22.1L909,717H731l-0.6,1.4
	c-0.9,2.3,3.1,20.4,6.5,29.1c1.7,4.4,5.3,11.4,8.1,15.6l5,7.6l16.2,15.2l7.2,3.5c4,1.9,10.1,4.3,13.7,5.2l6.5,1.7l24-0.1l7.8-2.1
	c16.4-4.4,34-16,42.8-28.2c2.5-3.4,5.5-7.5,6.8-9.1l2.3-2.9h5.6l23.2,22.2v5.5l-5.2,7.8c-17.3,25.7-40.6,40.3-73.2,46l-9,1.6
	l-13-0.1C798.4,836.9,789.1,836.3,785,835.6L785,835.6z M872,672.9c0-1.7-0.7-5.8-1.6-9.2c-3.6-13.9-11.8-27.3-22.6-37.2l-6.3-5.7
	l-18-8.7l-17.8-3.5l-10.1,1.1c-5.6,0.6-12.7,2-15.8,3.1c-15.8,5.5-31.7,20.8-41.1,39.6c-3.4,6.7-7.7,19.2-7.7,22.1v1.4h141
	L872,672.9z M1047.7,835.4c-53.7-9.7-90.4-56.2-94.5-119.7l-0.9-13.2l0.8-12.5c1-14.9,2.9-25,7.4-38.6c14.4-44.2,48.7-75,90.7-81.5
	l7.8-1.2l28.5,1.1l7.6,2c29.6,7.8,53.9,28.2,67.9,57c9.8,20.1,14,41.2,14,70.3v12.9l-2.5,2.5l-2.5,2.5H993.7l0.6,6.2
	c2.6,26.7,17.9,51.7,39.7,64.8l6.5,3.9l15.9,4.2l24,0.1l6.4-1.7c20.6-5.4,36.8-16.6,47.9-33.2l4.7-7l6.3-0.6l11.1,10.2
	c11.1,10.3,13,12.4,13,15.2c0,2.8-11.8,19.2-19.4,26.9c-15.6,15.7-35.3,25.3-59.9,29.3l-9.2,1.5l-13-0.1
	C1061.4,836.9,1052,836.2,1047.7,835.4L1047.7,835.4z M1135.2,671.5c-0.4-6.2-4-17.4-7.9-24.5c-9.4-17.2-22.5-28.4-40.8-34.7l-8-2.7
	l-24,0l-6.4,1.7c-8.5,2.3-16.6,6.7-24.8,13.6c-8.3,7-14.1,14.5-20.4,26.5c-4.6,8.7-9.3,22.8-8.1,24c0.3,0.3,32.1,0.5,70.7,0.3
	l70.1-0.3L1135.2,671.5z"/>
<path class="st2" d="M764.5,1599c-162.5-9.1-307.8-60.2-435.4-153.1c-56-40.7-110-92.4-153.6-147C82.8,1183,24.6,1044.7,6.6,897.5
	c-2.8-22.7-4.5-44.2-5.7-71.2L-0.3,800l1.2-26.2c4.7-104.8,25-196.3,63.7-287.2c51.4-120.5,133.7-228.8,236.5-311
	C422.1,78.7,570.3,18.5,722,4.5c9.1-0.8,21.7-2.1,28-2.7l11.5-1.2h77L850,1.8c6.3,0.7,18.9,1.9,28,2.7c151.7,14,299.9,74.2,421,171
	c44.9,35.9,89.6,80.6,125.6,125.6c86.6,108.3,143.5,237.1,164.9,373c5.3,33.5,8.1,62.2,9.8,99.8l1.2,26.2l-1.2,26.2
	c-1.7,37.5-4.5,66.2-9.8,99.8c-22.3,141.7-83.7,276.5-176.3,386.9c-33.1,39.5-73.9,79.4-114.2,111.6
	c-121.1,96.8-269.7,157.1-421.1,171c-9.6,0.9-21.6,2-26.8,2.6C838.6,1599.4,782.1,1600,764.5,1599L764.5,1599z M844.5,1565
	c79.9-5,152.3-20.3,224-47.2c131.2-49.3,243.7-131.4,332-242.2c91.1-114.4,147.4-252.8,161.9-398.5c3.6-36.5,4.7-87,2.6-122
	c-11.5-188.4-89-361.5-221.5-494.6c-29.5-29.7-50.1-47.8-81.5-71.6c-111.8-84.8-246.5-137.7-385.5-151.2c-37.6-3.7-86.8-4.7-121-2.6
	C629.1,42.9,512.9,78.7,406,142.7C326.3,190.5,255,253.7,195.9,329c-48.3,61.6-85.8,128.4-113.7,202.5C55.5,602.7,39.8,676.9,35,755
	c-1.3,21.2-1.3,68.8,0,90c6.2,101,30.6,195.3,74.2,287c45.4,95.4,116.6,186.6,200.8,257.1c117.3,98.2,265.5,159.8,418.4,173.9
	C760.9,1565.9,814.4,1566.9,844.5,1565L844.5,1565z M235.7,1294.6c-0.7-1.9,1-56.2,2.3-72.6c5.2-66.4,15.9-127.7,32.7-187.9
	c6.6-23.6,20.9-66.8,29.3-88.1c3.3-8.5,6.1-16.4,6.1-17.6s-1.6-6.7-3.5-12.5c-3.6-10.7-4.2-14.4-2.5-17l0.9-1.5l19.4-1l15.1-30
	c14.4-28.7,20.7-40.2,33.2-61.2l5.6-9.4l-2.4-1.6c-1.3-0.9-8.3-7.4-15.6-14.5l-13.2-12.9l-2.1,1.3v58.7l-3.1,3.1h-35.7l-3.1-4.4
	V717.7l-6.8-8.6c-38.7-49-67.6-99-86.6-150.1c-18.5-49.6-27.5-94.3-29.2-144.3l-0.7-19.8l120.8,0.5l0.2,7.5
	c0.4,13.4,2.4,38.3,3.3,40.7l0.9,2.3h206.9l3.1,4.4V484l-4,4H343.4l-2.4,2.4v91.1l2.1,4c1.1,2.2,4.6,8.6,7.7,14.2l5.6,10.2
	l139.7,0.6l1.4,1.9l1.4,1.9v9.2c0,5.1,0.4,9.5,0.9,9.8s8.7-7,18.4-16.2c9.6-9.2,21.2-19.9,25.6-23.7l8.1-7l0-3c0-1.7,0.7-4,1.5-5.1
	l1.5-2.1l10-1l9.8-7.9c77.6-62.9,167-112.3,260.7-144c65.3-22.1,124.4-34.3,201.6-41.5l12.5-1.2l100.7-0.5l3.1-2.8
	c1.7-1.6,0.9-0.4-1.9,2.5c-4.7,5-29.1,26.8-40.1,35.8l-5.1,4.2l-11.2,3.6c-12.2,3.9-21.1,5.8-48.1,10.5c-17,3-32.2,5.1-36.6,5.1
	h-2.1l-7.1-13.1c-3.9-7.2-7.1-13.4-7.1-13.8s3.6-3,8-5.9l8-5.2v-5l-2.5-1.7l-2.5-1.7l-3.6,0.6c-2,0.3-7.7,3-12.7,6
	c-5,3-11.8,6.9-15.1,8.7s-9.3,5.5-13.2,8.2L953,421v5l5.1,2.3l4.2-1.2c2.3-0.7,4.8-1.3,5.6-1.4l1.4-0.2l4.4,11.5
	c2.4,6.3,5.1,12.3,6,13.2l1.6,1.8l7.1,0c3.9,0,10.9-0.4,15.6-0.9s17.7-1.6,29-2.5s22.5-1.8,25-2.1l4.5-0.5l-2.8,2.4
	c-5.3,4.5-27.1,16.4-40.7,22.2c-7.4,3.2-15.5,6.8-18,8s-5.6,2.6-7,3l-2.5,0.8l1.3-1.6l1.3-1.6l-0.9-0.6c-3-1.8-85.2,15.5-85.2,18
	c0,1.7,2.6,4.8,5.3,6.4c1.8,1.1,2.5,1.9,1.7,1.9c-0.8,0-4.5-3.1-8.2-7l-6.7-7H893l-3.2,5l5.3,9.5l-5-4.7l-7.3,2.2
	c-14.9,4.5-47.9,16.5-65.3,23.7c-45.1,18.7-91.7,43.6-130,69.3l-10.4,7l-1.3,8.1l-4.2,2.8l-7.6-1.7l-14,10.5
	c-14.8,11.1-46.5,37.1-51.1,42l-2.7,2.9l-2,13.9l0,72l0,72l-3.1,4.4l-8.2,0c-4.5,0-8.8,0.4-9.6,0.9l-1.4,0.9l10.4,7
	c55.4,37.1,127.4,75.2,199,105.2c100.2,42.1,219.6,76.5,338.2,97.5c10.9,1.9,20.2,3.8,20.8,4.1c0.5,0.3,4.6-1.9,9.2-4.9
	c14.9-9.9,29-15.4,46.2-18.2l10-1.6l29,1l8.5,2.1c23.2,5.8,42.4,16.9,58.2,34l7.3,7.8l18.5,1.1c19.1,1.2,52.7,2.8,68.5,3.4
	c5,0.2,9.6,0.7,10.2,1.1l1.2,0.8v69.9l-1.5,0.6c-1.4,0.6-63.9-1.5-67.7-2.2l-1.8-0.3l0,1.7c0.1,12.2-1.2,33.7-2.6,41.2
	c-12.4,71-70.6,114.4-138.5,103.4c-34.9-5.7-64.9-27-82-58.4c-8.5-15.7-13.6-31.2-16.5-50.4l-1.5-10.4l0-12.9l0-12.9l1.6-10
	c0.9-5.5,1.8-11.6,2.1-13.6l0.5-3.6l-9.9-1.7c-5.4-1-18-3.2-27.9-5.1s-19.2-3.6-20.7-3.8l-2.7-0.5l-0.6,1.5
	c-0.3,0.8-0.6,40.4-0.6,87.9v86.4l-4.4,3.1h-30.2l-1.9-1.4l-1.9-1.4l-1-184.6l-3-0.8c-1.7-0.4-16-3.9-32-7.8s-34.8-8.7-42-10.6
	l-13-3.6l-3.3,1.8c-1.8,1-5.9,4.6-9.1,7.9l-5.7,6.1l-4.1,7.9c-4.8,9.3-6.8,15.6-8.8,27.9l-1.5,9l0,145.5l-4,4h-30.6l-2.1-1.5
	l-2.1-1.5l-0.6-105.3c-0.3-57.9-1-109.5-1.4-114.6l-0.7-9.4l-28-9.8c-78.8-27.4-137.8-52.6-204.9-87.4c-10.4-5.4-19.4-9.6-20.1-9.3
	c-1.4,0.6,0-3.6-64.9,186.9L465.3,1278l-1.8,2l-1.8,2l-17.1,0c-9.4,0-17.6-0.3-18.2-0.8c-0.6-0.4-1.8-2.1-2.6-3.7
	s-16.9-49.2-35.7-105.7s-34.6-103-35.1-103.3c-1.8-1.1-4.6,8.7-11.4,39.6c-11.6,53.4-17.8,103.5-19.5,158.6
	c-0.5,14.9-1.1,27.6-1.5,28.2l-0.7,1.1h-83.7L235.7,1294.6L235.7,1294.6z M1231.3,1274.9c34.2-5.1,62.5-25.9,78.6-57.8
	c4.5-9,9.6-25,11.7-36.7l1.7-10v-32l-1.7-10c-9-52.1-43.6-87.8-91.5-94.6l-8.4-1.2l-11.1,0.5c-37.7,1.8-66.3,18.8-85.4,50.7
	c-24.2,40.5-24.3,99.8-0.2,140.7c9.6,16.4,20.9,27.9,36.4,37.1c11.2,6.7,23.6,10.8,40.6,13.5
	C1207.4,1276.1,1224.5,1275.9,1231.3,1274.9L1231.3,1274.9z M1198.5,1259.5c-17.3-3.2-31.4-10.6-44.9-23.5
	c-15-14.3-24.4-32.5-29.8-57.6l-1.3-6v-36l1.3-6c5.4-25.1,14.8-43.2,29.8-57.6c8.6-8.2,14.3-12.1,24.7-16.9
	c11.1-5.1,19.1-7,32.7-7.7l11.5-0.6l9,1.7c34.7,6.6,61.1,31.3,71.8,67.5c3.8,12.9,5.1,22.1,5.1,37.5s-1.3,24.6-5.1,37.5
	c-10.6,35.5-36.2,60.2-69.8,67.1l-9.1,1.9l-9.5-0.1C1209.8,1260.8,1202.3,1260.2,1198.5,1259.5L1198.5,1259.5z M1235.5,1246.4
	c34.3-9.3,56.6-39.1,60.6-80.8c1-10.7,0.5-24.3-1-26.7l-0.8-1.2l-21.9-1.9c-37.9-3.2-76.7-7.5-113.2-12.5l-19.3-2.7l-0.9,0.9
	c-1.6,1.6-4.1,15.6-4.7,26.9l-0.6,11l1.1,9c3.1,25.4,12,44.6,27.4,59.1c11.4,10.7,23.9,17.3,38.2,20l7,1.3l11-0.4
	C1224.6,1248.2,1232.2,1247.3,1235.5,1246.4L1235.5,1246.4z M516.6,1090c33.7-98.7,60.9-179.9,60.5-180.3s-4.5-0.7-9.2-0.5l-8.4,0.3
	l-108.3,324.9l-1.8,1.3c-2.5,1.9-6.1,1.6-8.3-0.6l-1.9-1.9l-8.1-24.4c-4.4-13.4-28.4-86-53.2-161.4s-45.5-137.4-45.9-137.8
	c-0.4-0.4-4.8-0.7-9.7-0.5l-8.9,0.3l0.2,1c0.2,1.1,117.9,353.1,119.3,357l1,2.5l21.4-0.6L516.6,1090z M863.1,1196l0.6-73.5l1.7-7
	c2.7-11.1,4.6-16.4,9.5-26l4.6-9l17.1-17.1l8.5-4.2c10.2-5,18.3-7.1,31.2-7.9l9.7-0.6l0.6-4.6c0.3-2.5,0.8-6.1,1-7.8l0.4-3.2l-1.9-1
	c-5.4-2.9-24.5,0-35.5,5.4l-7,3.4l-6.2,5.6c-6.7,6.1-15.1,16.8-20.2,25.8c-1.8,3.2-4.2,6.2-5.3,6.8c-2.8,1.5-6.5,0.3-8.5-2.7
	l-1.7-2.6l-0.6-18.1l-0.6-18.1l-14.7-0.6l0.6,14.3c0.3,7.9,0.8,59.3,1.2,114.3s0.8,100.6,1,101.3l0.4,1.3l13.5-0.6L863.1,1196z
	 M1024.5,1154.5v-115h-14l-0.3,114c-0.1,62.7,0,114.6,0.2,115.3l0.5,1.3l13.5-0.6L1024.5,1154.5z M494.5,1065.8
	c26.1-78.7,47.5-143.9,47.5-145c0-1.1-0.5-1.9-1.1-1.9c-3,0-59.6-37-85.2-55.7c-7-5.1-13-9.3-13.2-9.3c-0.6,0-9.3,14.8-16.8,28.5
	c-17.4,32-34,67.8-46.4,100l-5.4,14l34.7,105.5c19.1,58,35.1,106.1,35.6,106.8c0.5,0.7,1.3,1,1.8,0.7
	C446.6,1209.1,468.3,1144.5,494.5,1065.8L494.5,1065.8z M329,731.3l0.5-86.1l1.9-2.1l1.9-2.1l153.2-0.5l0.3-8.8l0.3-8.8l-13.8,0
	c-7.6,0-41,0-74.3,0l-60.5,0l-3.4-1c-1.8-0.5-4-1.8-4.7-2.8l-1.4-1.8l0-68.1l0-68.1l4.1-5.3l165.4-0.5v-17h-187L311.2,637
	c-0.1,98.2,0,179.1,0.2,179.8l0.5,1.3l16.5-0.6L329,731.3z M554.4,816.4c0.8-2.1,0.8-103.8,0-105.8c-0.3-0.9-1-1.6-1.4-1.6
	c-2.2,0-56.1,62.9-56,65.4c0,0.6,1.5,2.2,3.4,3.6c1.8,1.4,8.5,6.6,14.7,11.7c17,13.7,36.2,28.2,37.5,28.3
	C553.3,817.9,554,817.3,554.4,816.4L554.4,816.4z M582,744c0.3-40.4,0.9-74.4,1.2-75.5s1.6-5.8,2.8-10.5c8.7-35.3,36.5-58,70.9-58h8
	l0.7-5.8c0.4-3.2,0.7-7.1,0.8-8.7l0.2-3l-4.5-0.7c-5.9-0.9-18.3,0.5-25.2,2.9c-14.9,5-29.5,18.5-39.6,36.4c-1.7,3.1-4,6.4-5,7.3
	l-1.9,1.7l-5.5-0.6l-4-5.4l-0.6-17.8l-0.6-17.8l-14.7-0.6l0.6,13.8c0.3,7.6,0.9,59.4,1.2,115.1l0.6,101.3l14.3-0.6L582,744z
	 M439.6,703.2c8.8-11.1,29.2-35,36.2-42.4l5.4-5.7l-1.3-2.1h-93.8l-0.5,0.9c-0.5,0.9,11.3,17.3,20.3,28.1c11.6,14,25.5,30,26.1,30
	C432.4,712,435.8,708,439.6,703.2L439.6,703.2z M646.6,1286.9c-34.6-5.1-58.4-26.3-65-58.1l-1.6-7.7l0-11.3l0-11.3l2-9
	c5.8-26.2,23.5-44.8,53.4-56c17.7-6.6,36.5-9.2,74.7-10.4l23.3-0.7l0.6-17.3l-1.5-7.2c-0.8-4-2.6-9.6-4-12.6l-2.5-5.4l-4.9-4.8
	c-5.5-5.4-14.6-10.2-24.2-12.8l-6.5-1.8l-27,0.1l-8,2.2c-4.4,1.2-12,4.2-17,6.7l-9,4.5l-16,13l-5.9-0.5l-9.3-12.3
	c-5.1-6.7-9.3-12.9-9.3-13.7c0-2.4,6.8-9.4,15.5-15.8c14.8-11,34.4-18.9,55.5-22.4l9.5-1.6l14.5,0.5l14.5,0.5l9.9,2.6
	c18.4,4.8,35.5,15.2,44.6,27.1c7.7,10.3,13.6,25.2,16.1,41l1.1,7l0.8,74.5l0.8,74.5l1.6,14.2c1.6,15,1.5,16.7-1.4,18.3l-1.8,1h-28.8
	l-1.8-2l-1.8-2l-1.3-10.3c-0.7-5.7-1.3-10.4-1.4-10.5c-0.4-1.3-3,0.6-6.8,4.8c-11.9,13.2-26.7,21-46.3,24.5l-8.5,1.5l-10.5-0.1
	C657.2,1287.8,649.8,1287.3,646.6,1286.9L646.6,1286.9z M687.3,1273.1c10.4-2.7,20.3-8.1,27.9-15.1l6.3-5.8l6.5-10.1
	c3.6-5.5,7.5-10.6,8.7-11.3l2.2-1.2l2.6,0.6l2.6,0.6l2.8,5.5l0.6,14c0.3,7.7,1,15.3,1.6,16.8l1.1,2.8l11.5-0.6l-0.1-3
	c-0.1-1.7-0.7-12.4-1.3-24c-0.6-11.6-1.5-50-2-85.5l-0.8-64.5l-2.3-8.5c-4.1-15.6-11-26.8-21.3-34.6c-7.9-6-18.3-10.8-28.9-13.4
	l-8.3-2l-26-1.2l-9.5,1.7c-12.1,2.1-28.4,7.6-37.8,12.6c-7.7,4.2-19.2,12.5-19.2,13.9c0,0.5,1.8,3.1,4,5.9l4,5l9.5-6.3
	c10.3-6.9,20.4-11.5,32.4-14.8l7.7-2.1l14.5-0.1l14.5-0.1l6.5,1.4c9.1,2,19.4,6.5,26.8,11.8c10.8,7.7,18,19.5,20.8,34.2l1.4,7.3
	v27.8l-4,4h-16.4c-22.5,0-49.9,1.7-63.1,4c-39.2,6.7-63.3,25.6-69,54.2c-2,9.9-2,23.8,0,33.6l1.6,7.7l7.3,15l14.2,14.3l8.4,4
	c7.2,3.4,13.6,5.3,25.9,7.6c1.4,0.3,8.3,0.3,15.5,0.1l13-0.3L687.3,1273.1z M650,1259.5c-3.6-0.8-10.1-3.3-14.6-5.5l-8.1-4.1
	l-5.6-5.6c-9.8-9.8-14.7-21.6-14.7-35.4c0-9.1,2-17.3,6.2-25.1l3.1-5.9l13.3-12.5l8-4.2c20-10.4,43.2-14.2,86.6-14.3l16.6,0l5.3,4.1
	v31.7l-2,11.3c-2.2,12.9-4.5,20.1-9.2,29.1l-3.3,6.2l-18.1,18.2l-9.5,4.5c-5.2,2.5-12.4,5.3-16,6.2l-6.5,1.6l-25,0.9L650,1259.5
	L650,1259.5z M685.5,1246.5c3.3-0.9,9.3-3.1,13.4-5l7.4-3.5l7.7-7.7l7.7-7.7l7.4-15l4.1-19l0.6-14.2l0.6-14.2l-2.8-0.7
	c-4.2-1-39.9,0.4-53.3,2.2l-11.6,1.5l-10,3.3c-12.1,4-20.4,8.8-26.7,15.2l-4.7,4.8l-2.8,6l-2.8,6l0,20l3.1,6.5
	c5.4,11.3,16.1,19.5,29.7,22.6l6.2,1.4l10.5-0.5C674.8,1248.2,682.2,1247.3,685.5,1246.5L685.5,1246.5z M1011,964
	c-7.6-2.3-13.6-7.8-17.2-15.6l-2.3-5l0-16l2.4-4.9c2.9-6,8.1-11.3,13.5-13.7l4.1-1.9l12,0l10.1,4.7l3.7,4.3c2,2.4,4.4,6.5,5.3,9.3
	l1.7,5l-0.9,15.3l-2.9,5.4l-2.9,5.4l-4.5,3.3C1026.4,964.4,1017.8,966.1,1011,964L1011,964z M1025.5,950.4c1.3-0.9,3.3-3.5,4.4-5.8
	l2-4.2v-9.9l-1.9-3.5c-1-1.9-3.3-4.5-5.1-5.7l-3.3-2.2h-3.6c-2,0-5.2,0.8-7.1,1.8l-3.4,1.8l-1.8,3.6c-5,9.7-1.9,21.5,6.7,25.4
	l3.1,1.4l3.8-0.5C1021.4,952.2,1024.2,951.2,1025.5,950.4L1025.5,950.4z M794,836c-27.3-2.8-49.6-13.5-68.2-32.9
	c-16.9-17.5-27.2-38.2-32.9-65.5l-2.1-10.2l-0.5-18.1l-0.5-18.1l1.1-9.6c3.6-30.2,15.5-57.1,34.1-77c19.6-20.9,41.4-32,68.7-34.7
	l10.7-1.1l10.7,1.1c19.2,1.9,32.5,6.6,47.4,16.5c24.8,16.6,42.2,45.1,48,79l1.7,10l0.3,37.2l-1.4,1.7l-1.4,1.7H731.1l-1.8,3.2
	l1.3,7.7c3.8,21.9,12.3,38.4,26.6,51.8c8.1,7.6,16.2,12.5,25.2,15.4l7,2.2l22.8,1l7.1-1.2c21-3.7,41.1-16.8,52.5-34.5
	c2.3-3.6,5.1-6.8,6.2-7.1l1.9-0.6l2.9,1.8c1.6,1,7.4,6.2,13,11.5l10.1,9.7v1.9c0,2.9-11.4,19-18.8,26.5
	c-18.9,19.2-44.1,29.4-76.2,31C805.8,836.5,798.1,836.4,794,836L794,836z M820.2,823.5c15.5-1.3,35.2-8.4,47.2-16.9
	c7.2-5.1,19.1-17.6,22-22.9l2-3.6l-4.4-4.5c-2.4-2.5-4.9-4.5-5.5-4.5s-3,2.4-5.3,5.2c-12,14.9-32.4,27.1-52.1,31.2l-7.2,1.5h-22.7
	l-15.2-2.9l-8.5-4c-21.4-10-39-30.4-47.3-54.6c-2.9-8.4-6.2-26.4-6.2-33.5v-5.9l5.3-4.1h177.8l0.6-1.7c0.3-0.9,0.1-9.2-0.5-18.4
	l-1.2-16.7l-2.5-9.8c-7.7-29.5-23.4-51.5-46.2-64.5c-13.9-8-27.2-11.2-45.8-11.2l-12,0l-8,1.7c-29.5,6.2-54.2,26.1-68.5,55
	c-5.6,11.3-8.3,19-11.1,32l-2,9l-0.6,16.5l-0.6,16.5l1.2,10.4c2.3,20,8.2,38.2,17.3,53.6l5.2,8.8l7.9,8.4
	c9.5,10,17.4,15.9,28.7,21.2c10.8,5.1,21.3,7.9,33,8.9C804.3,824.7,806.2,824.6,820.2,823.5L820.2,823.5z M719,686.8l-2.3-2.2
	l0.6-6.1c0.3-3.4,2.2-11,4.1-17l3.6-10.9l4.6-8.1c14.1-24.6,33.8-40.1,56.3-44.5c3.6-0.7,11.5-1.2,17.5-1.2l11,0l7.8,2
	c23.1,6,43.1,22.8,54.2,45.5c5.6,11.5,7.5,18.6,8.2,30.7l0.5,9.6L881,689H721.4L719,686.8z M872.6,675.5c0.3-0.8-0.1-5-1-9.2
	l-1.6-7.8l-4.5-9c-10.1-20.4-26.9-34.3-47.1-39.1l-7-1.6l-24,0.9l-13.4,4.3l-7.5,5c-9.3,6.2-18.6,16.2-25,26.8
	c-5.1,8.5-12.2,27.2-11.2,29.7l0.5,1.4h141.1L872.6,675.5z M1056.7,835.9c-55.6-5.5-94.9-48.5-102.3-111.9
	c-7.6-64.8,19.1-121.6,67.8-144.5c11.6-5.5,21.3-8.1,34.9-9.5l10.7-1.1l11.1,1.1c47.9,4.8,82.9,38.3,94.3,90.6l2,9l0.5,21.3
	l0.5,21.3l-1.8,2l-1.8,2h-88.3c-48.5,0-89,0.3-89.8,0.6l-1.6,0.6l0,2.6c0,1.5,1.1,7.6,2.5,13.6l2.5,10.9l4.4,9.1
	c10.8,22.1,29.1,37.8,49.1,42l7,1.5l21.2,0l7.9-2c20-5.1,37.7-17.4,47.9-33.4c2-3.1,4.7-6.1,5.9-6.7l2.3-1.1l1.5,0.9
	c0.8,0.5,6.5,5.5,12.6,11.2l11.1,10.3v5.3l-5.7,8.4c-6.9,10.2-17.5,21.1-26.2,27C1115.6,831.5,1085,838.7,1056.7,835.9L1056.7,835.9
	z M1088,822.8c27-3.8,50.5-17.5,63.5-37.2l3.8-5.8l-4.4-4.5c-2.4-2.5-5.1-4.4-5.9-4.4c-0.8,0-3.3,2.3-5.4,5.1
	c-9.3,12-26.8,23.6-44.6,29.5l-8.5,2.8l-34,0.1l-6.5-1.8c-24.9-6.7-47.3-28.3-58-55.8c-3.2-8.3-6.5-23.4-7.6-34.6l-0.7-7.2l5.1-5.1
	h179.4l-0.6-16.8l-0.6-16.8l-1.9-8.5c-7.8-34-25.3-58.1-51.7-71.4c-9.1-4.5-19.4-7.3-31.7-8.6l-9.8-1l-9.8,1
	c-30.3,3.1-54.7,18.4-72.3,45.1c-12.3,18.7-19,40.8-20.5,68l-0.7,11.4l1.2,11.5c3.7,36.9,16.6,64.6,38.6,83.4
	C1027.3,820.7,1054.1,827.6,1088,822.8L1088,822.8z M982.3,686.4l-2.6-2.6l0.7-4.7c1.1-7.7,5.5-22.1,9.1-29.6
	c12.7-26.8,34.9-46.2,58.5-51.1l7.5-1.6l22,0l8,2.1c23.5,6.1,43,22.2,54.4,44.7c4.3,8.6,8,22,8.8,31.8l0.6,8.3l-5.2,5.2H984.9
	L982.3,686.4L982.3,686.4z M1135.8,673.2c0.5-5.1-2.4-15-7.5-25.3l-4.7-9.5l-18.2-18.2l-8.5-4.2c-4.7-2.3-11.4-4.9-15-5.8l-6.5-1.6
	l-25.1,0.9l-6.4,2.2c-17.4,6.1-34.9,23.3-44.1,43.4c-3.7,8.1-6.5,18-5.7,20.1l0.6,1.6l140.6-0.5L1135.8,673.2z M1373,522.4
	c-68.7-27.2-142.4-44.2-216.5-49.9c-25.3-1.9-66.5-2.8-84.8-1.8c-8.1,0.4-14.8,0.7-14.8,0.7c0-0.1,5.5-3.2,12.2-6.9
	s16.3-9.4,21.3-12.6l9.1-5.9l9.9,1c28.8,2.8,48.1-0.2,71.2-11l8.2-3.9v-5.9l-8.8-8.1l-10.7-3.3l-11.8-0.6c-6.5-0.3-11.8-1-11.8-1.4
	s1.9-2.5,4.2-4.6s11.9-11.2,21.2-20.2c9.3-9.1,15.1-14.4,12.8-11.8c-2.3,2.6-4.2,5.2-4.2,5.7c0,1.3,1.4,1.6,22,4
	c70,8.3,148.9,28.9,211.5,55.2l8,3.4l0.6,4.4l-14.8,39.3c-13.3,35.3-15.6,40.8-17.4,40.7C1389.7,528.9,1382.1,526,1373,522.4
	L1373,522.4z M900.4,512.7l-4-4.2l4.2,4c4,3.7,4.7,4.5,4,4.5C904.5,517,902.6,515,900.4,512.7z M968,492c0.8-0.5,2-1,2.5-1
	s0.3,0.4-0.5,1s-2,1-2.5,1S967.2,492.5,968,492z M975,489c0.8-0.5,2-1,2.5-1s0.3,0.4-0.5,1s-2,1-2.5,1S974.2,489.5,975,489z
	 M984,485c0.8-0.5,2-1,2.5-1s0.3,0.4-0.5,1s-2,1-2.5,1S983.2,485.5,984,485z M1035.4,481.5c1.1-0.9,2.4-1.6,2.9-1.6
	c1.3,0,0.7,0.5-2.4,1.9l-2.5,1.2L1035.4,481.5z M1046,476.6c0-0.2,0.7-0.7,1.6-1l1.6-0.6l-0.6,1C1047.9,476.9,1046,477.4,1046,476.6
	z M1060,458.4c1.9-1.4,6.6-4.2,10.4-6.1c3.8-1.9,7.8-4.2,8.7-5c0.9-0.8,2.3-1.3,2.9-1.1c1.7,0.6-22.1,14.8-24.8,14.8
	C1056.9,461,1058.1,459.8,1060,458.4L1060,458.4z M985.3,442.7c-1.1-1.4-7.3-17.4-7.3-18.8c0-0.5,2-1.9,4.5-3.1l4.5-2.2l0.9,0.9
	c1.4,1.5,12.1,21.2,12.1,22.2C1000,443.9,986.9,444.8,985.3,442.7L985.3,442.7z M1120.2,439.2c-3.6-0.4-4.1-1.4-1.8-3.3
	c0.8-0.7,1.5-2.3,1.5-3.6V430l-5.1-3.3l0.8-0.8c1.5-1.5,21.4-3.8,32.8-3.8c6.1,0,14.6,0.7,18.9,1.4l7.9,1.4l3.1,3.1l-5.7,2.5
	C1155.7,437.9,1136.2,441.2,1120.2,439.2L1120.2,439.2z M1128.2,413.1c0.2-0.5,5.3-5.3,11.3-10.7c6.1-5.4,17.5-15.9,25.5-23.4
	c8-7.5,15.4-14.2,16.5-15.1l2-1.5l-3.1,4c-9.1,11.6-47.6,47.5-50.9,47.5C1128.5,414,1128,413.6,1128.2,413.1L1128.2,413.1z
	 M1159,372.7c0-0.2,3.5-3.6,7.8-7.8l7.8-7.5l-7.5,7.8C1160.1,372.4,1159,373.4,1159,372.7z M1190.5,368c1-1.1,2-2,2.3-2
	s-0.3,0.9-1.3,2s-2,2-2.3,2S1189.5,369.1,1190.5,368z M1195.5,362c1-1.1,2-2,2.3-2s-0.3,0.9-1.3,2s-2,2-2.3,2
	S1194.5,363.1,1195.5,362z M1198,358.6c0-0.2,0.8-1,1.8-1.8l1.8-1.4l-1.4,1.8C1198.8,358.9,1198,359.4,1198,358.6z M1201,354.6
	c0-0.2,0.8-1,1.8-1.8l1.8-1.4l-1.4,1.8C1201.8,354.9,1201,355.4,1201,354.6z M1184,348.5c1.3-1.4,2.6-2.5,2.8-2.5s-0.6,1.1-1.8,2.5
	s-2.6,2.5-2.8,2.5S1182.7,349.8,1184,348.5z M1189,342.5c1.3-1.4,2.6-2.5,2.8-2.5s-0.6,1.1-1.8,2.5s-2.6,2.5-2.8,2.5
	S1187.7,343.8,1189,342.5z M1195,335.5c1.3-1.4,2.6-2.5,2.8-2.5s-0.6,1.1-1.8,2.5s-2.6,2.5-2.8,2.5S1193.7,336.8,1195,335.5z
	 M1215,334c0.6-1.1,1.3-2,1.6-2s0,0.9-0.6,2c-0.6,1.1-1.3,2-1.6,2S1214.4,335.1,1215,334z M1201.4,327.6c1.5-2,3-3.7,3.2-3.7
	c0.7,0-3.6,5.8-4.9,6.6C1199.1,331,1199.9,329.7,1201.4,327.6L1201.4,327.6z M1221.5,323.7c0.4-1,0.9-1.5,1.2-1.2s0,1.1-0.7,1.8
	l-1.2,1.2L1221.5,323.7z M1205.8,315.2l-1.7-3.7l2,2.4c1.1,1.3,2,3,2,3.8C1208,319.6,1207.7,319.3,1205.8,315.2z M1220.6,311.1
	l-2.9-3.6l3.4,3.2c1.9,1.8,3.2,3.4,2.9,3.6C1223.7,314.5,1222.2,313,1220.6,311.1z M1201.9,309.2l-1.4-1.8l1.8,1.4
	c1.7,1.3,2.2,2.1,1.4,2.1C1203.4,311,1202.6,310.2,1201.9,309.2z M1214.4,305.7l-1.9-2.2l2.2,1.9c2.1,1.8,2.7,2.6,1.9,2.6
	C1216.4,308,1215.4,306.9,1214.4,305.7z M1199.3,303.1l0.2-2.4l5-3l-2.2,1.9c-1.2,1-2.4,2.8-2.7,3.9l-0.5,2L1199.3,303.1z
	 M1209.4,301.7l-1.9-2.2l2.2,1.9c2.1,1.8,2.7,2.6,1.9,2.6C1211.4,304,1210.4,302.9,1209.4,301.7z"/>
<path class="st3" d="M768.5,1599c-16.4-0.8-45.1-3.4-66.5-6c-281.9-34.4-525.4-217.8-637.3-480c-32.5-76.1-53.4-159.7-60.1-240
	c-0.9-10.2-2-21.7-2.5-25.5s-1.2-18-1.5-31.5l-0.6-24.5l1-19c2.6-48.3,7.9-91.4,16.2-132.5c55.7-273.8,252-499.5,516.2-593.4
	C608.7,19.9,687.4,5,776.3,0.9L799-0.2l23.7,1.1c111.3,5,206.6,26.7,301.7,68.9c179.5,79.5,326.2,226.2,405.8,405.8
	c42.1,95,63.8,190,68.9,301.2l1.1,23.2l-1.1,23.2c-5,111-26.8,206.4-68.6,300.7c-109.7,247.4-340.7,424.7-606.5,465.4
	C868.3,1597.9,814.4,1601.3,768.5,1599L768.5,1599z M850.5,1565c78.3-5.1,156.4-22.5,229.5-51.2c23.9-9.4,39.4-16.4,66-29.8
	c107.1-54.1,198-131.1,271.5-229.9c38.4-51.6,72.2-112.8,96.3-174c24.8-63,40.9-128.6,48.3-195.9c3.3-30.5,4.3-49.6,4.3-84.1
	c0-73.9-8.9-138.9-28.3-208.1c-13.6-48.1-30.4-91.1-54-137.9c-14.3-28.3-27-50.2-43.4-75c-44.5-67.2-100.9-128.9-163.3-178.8
	C1218,153,1150.5,114,1080,86.3c-73.4-28.8-148.3-45.6-230-51.3c-21.6-1.5-79-1.5-100,0C680.1,40,618,52.3,555.3,73.4
	c-37,12.5-64.7,24.2-101.3,42.7c-71.6,36.2-132.6,80-189.9,136.3c-31.8,31.3-52.6,55-78.4,89.4C145,396.1,111.1,456.7,86.3,520
	c-28.8,73.4-45.4,147.7-51.4,230c-1.5,21.3-1.5,78.7,0,100c5,69.9,17.3,132,38.5,194.7c12.5,37,24.2,64.7,42.7,101.3
	c36,71.2,80.8,133.5,137.4,190.9c31,31.4,55.1,52.6,87.5,77c53.5,40.2,116.3,75.2,179.1,99.9c81.6,32.1,164.5,49.1,257,52.7
	C789.9,1566.9,833.6,1566.1,850.5,1565L850.5,1565z M235.7,1294.7c-0.7-1.9,1-56.2,2.3-72.6c6.6-83.4,21.3-157.2,46.5-232.5
	c8.2-24.5,19.4-54.6,21.7-58.3l1.2-1.9l-4.1-12.4c-4.4-13.2-4.9-16.1-2.9-17.7c0.7-0.6,5.5-1.2,10.7-1.4l9.4-0.3l0.4-1.1
	c0.2-0.6,6.2-12.7,13.3-27c12.6-25.4,22.8-44.2,34.5-63.7l5.9-9.8l-2.4-1.6c-1.3-0.9-8.3-7.4-15.5-14.5
	c-7.2-7.1-13.6-12.8-14.2-12.8H341v58.6l-3.1,4.4h-34.5l-3.4-2.5l-0.3-55l-0.3-55l-2.9-3c-1.6-1.7-7.5-9.1-13.1-16.5
	c-68-89.7-103.9-184.7-107.2-283.3l-0.7-19.8l120.8,0.5l0.2,7.5c0.4,13.4,2.4,38.3,3.3,40.7l0.9,2.3h205.2l1.9,1l1.9,1v36.7
	l-3.3,2.7l-165.2,1l-0.3,46.7l-0.3,46.7l5.6,10.3c3.1,5.7,6.5,11.8,7.6,13.6s1.6,3.3,1.2,3.3s-0.2,0.5,0.7,1l1.5,1l138.4,0l3.1,4.4
	V634h0.9c0.5,0,7.8-6.6,16.3-14.8c20.1-19.3,33.4-31.2,34.6-31.2c1.4,0,2.2-2.5,2.2-6.5v-3.4l1.9-1c1.1-0.6,3.7-1,5.8-1h3.9l3.9-3.5
	c6.4-5.8,31.8-25.3,47.4-36.5c115.7-82.8,252-135.5,390.5-150.9c32-3.6,42.4-4.2,81-4.8c36.6-0.5,61.9,0.1,61.3,1.6
	c-0.5,1.2-16.3,15.5-29.6,26.8l-12.3,10.5l-12.6,3.9c-12.3,3.8-17.9,5-47,10.3c-16.5,3-37.1,5.7-38.2,5c-0.4-0.3-2.9-4.4-5.5-9.2
	c-2.6-4.8-5.8-10.6-7.1-12.9l-2.4-4.2l6.3-4.2c11.3-7.6,12.5-9.3,8.8-12.9l-2-2h-8.6l-7,4.3c-3.8,2.4-11,6.5-16,9.2
	c-10.5,5.7-19.2,11.4-21.9,14.4l-1.9,2.1l3.3,5.1l3.7,0c2,0,5-0.7,6.6-1.5s3.2-1.2,3.6-0.7s1.9,4.4,3.4,8.8s3.7,10,4.9,12.5l2.2,4.5
	l7,1.8l16.5-1.6c18.8-1.8,52.2-4.6,56-4.6h2.5l-3.5,2.3c-9.4,6.3-26.6,15.4-39.9,21.1c-8.1,3.5-16.3,7.1-18.1,8l-3.3,1.7l-4.6-2.1
	l-17.3,3c-19.1,3.3-49.6,9.9-60,13l-6.8,2l0,1.2c0,0.7-1.3-0.2-2.8-1.9c-5-5.7-9.7-6.9-13.3-3.3l-2.1,2.1l0.6,3.2l0.6,3.2l-7.6,2.2
	c-14.1,4.2-47.8,16.3-65.9,23.9c-44.9,18.7-85,40-131.2,69.8l-9.2,5.9l-0.7,3.5c-0.4,1.9-1.1,4.3-1.7,5.4l-1,1.9l-10-1.2l-14.2,10.7
	c-23.9,18-51.5,41.3-53.6,45.2c-0.6,1.1-1.5,7.3-2,13.8l-1,11.8l0,67.2l0,67.2l-1.9,1c-1.1,0.6-5.5,1-9.9,1h-8l-0.6,1
	c-0.6,1,11.6,9.5,32.5,22.6c141,88.2,319.3,153.4,514,187.9c10.7,1.9,20.2,3.7,21.1,4.1l1.6,0.6l6.9-4.7
	c15.8-10.9,34.7-17.5,55.6-19.5l11.7-1.1l11.3,1.2c29.5,3.1,51.3,13.6,72,34.8l8.7,8.9l10.3,0.6c18,1.1,65.9,3.6,76.3,3.9
	c5.5,0.2,10.6,0.7,11.2,1.1l1.2,0.8v69.9l-1.5,0.6c-1.2,0.4-51.3-1-67.5-2l-2.5-0.1l-0.6,19l-0.6,19l-2.2,9.9
	c-5.9,26.4-16.3,46.6-32.8,63.8c-20.3,21.1-42.4,31.8-72,34.9l-11.3,1.2l-11.7-1.1c-60.8-5.8-102.5-51.7-108.2-119l-1.1-13.4
	l1.1-13.8c0.6-7.6,1.6-15.3,2.1-17.1c0.5-1.8,0.9-4.7,0.9-6.4v-3.1l-9.8-1.7c-5.4-0.9-18.1-3.3-28.2-5.2s-19.6-3.6-21-3.6l-2.5-0.2
	l-0.5,87.7l-0.5,87.7l-1.3,1.3l-1.3,1.3h-31.6l-1.7-1.4l-1.7-1.4l0-90.1c0-49.6-0.3-91.1-0.6-92.3l-0.6-2.1l-6.2-1.2
	c-3.4-0.7-22.1-5.3-41.7-10.2s-37.4-9.5-39.7-10.1l-4.2-1.1l-5.1,3.9c-10.2,7.7-19.1,22.5-22.9,38c-1.1,4.4-2.5,13.2-3,19.5l-1,11.4
	l0,67.1l0,67.1l-1.7,1.4l-1.7,1.4h-31.9l-2.6-3.6l-0.5-109.7c-0.3-60.3-0.9-111.7-1.3-114.1l-0.8-4.4l-28-9.8
	c-79.4-27.7-138.9-53-205.5-87.7c-10.7-5.6-19.9-9.8-20.3-9.4c-0.5,0.4-26.5,76.1-57.8,168.2c-31.4,92.1-57.7,168.1-58.5,168.9
	l-1.4,1.5h-34.9l-1.5-1.5c-0.8-0.8-17.3-48.7-36.5-106.4c-19.3-57.7-35.4-105.3-35.9-105.8l-0.9-0.9l-1.1,2.8
	c-3.6,9.3-12.7,50.3-17.6,79.9c-6.9,40.9-10.2,74.8-11.5,117.1c-0.5,14.9-1.1,27.6-1.5,28.2l-0.7,1.1h-83.7L235.7,1294.7
	L235.7,1294.7z M1233.5,1275.6c33.5-5.4,61.2-26.1,76.9-57.4c5-10,10.1-25.6,12.2-37.7l1.7-10v-32l-1.7-10
	c-3.2-18.2-10.6-37.3-19.8-50.9c-5.4-7.9-16.6-19.6-24.6-25.6c-17.1-12.8-39.7-20-62.6-20c-56.9,0-99.4,39.8-107.9,101
	c-6.1,43.8,6.7,87.5,33.3,114.1c19.6,19.5,44.3,29.5,73.6,29.8C1220,1277,1228.6,1276.4,1233.5,1275.6L1233.5,1275.6z M1200.4,1259
	c-15-2.7-31.2-10.4-43.1-20.6c-15.5-13.3-27.5-35.4-32.4-59.8l-1.4-7v-34l1.4-7c4.6-23.3,14.2-42,29.1-56.5l7.7-7.5l8.1-4.8
	c9.4-5.6,21.6-10.1,32.2-11.7l7.5-1.2l10.5,0.5l10.5,0.5l8,2.1c16.2,4.2,32.4,14.5,43.8,27.8c11.4,13.2,18.6,28.5,22.8,48.4
	l2.2,10.3v32l-2.2,10.5c-4.2,19.9-11.3,35-22.8,48.3c-11.4,13.2-27.5,23.5-43.7,27.8l-8,2.1l-12.5,0.3
	C1211.1,1259.8,1203.2,1259.5,1200.4,1259L1200.4,1259z M1240.2,1245.3c16.3-5.7,30.8-16.9,40.4-31.5c11.2-16.9,17.2-40.3,16.2-63.8
	l-0.4-10l-2.3-2.3l-21.8-1.9c-38.7-3.3-81.3-8-114.7-12.8l-18.9-2.7l-0.9,2.4c-0.5,1.3-1.6,6.5-2.5,11.5l-1.6,9.1l1,31l2.5,9.7
	c8.8,33.6,30.7,56.2,61.2,63.4l6,1.4l27-0.6L1240.2,1245.3z M455.8,1269.8c1.7-2,123.3-359.8,122.7-360.8
	c-0.7-1.1-17.4-1.2-19.1-0.2c-0.6,0.4-25.3,73.4-54.9,162.2c-29.6,88.8-54.5,162.3-55.3,163.3l-1.6,1.8l-4.9-0.6l-1.8-2.5
	c-1-1.4-25.5-74.7-54.5-163s-53.2-160.8-53.8-161.2c-1.5-1-19.4-1-20,0.1c-0.3,0.5,3.5,13,8.5,27.8c5,14.8,32,95.5,60,179.3
	c28,83.8,51.4,153,52,153.8l1.1,1.3h20.5L455.8,1269.8z M862.8,1269.8l1.2-1.2l0-138.1l1.5-9.4c4.8-29.8,19.4-51.3,41.9-62.1
	c7.9-3.8,17.4-6,29.4-6.8l9.5-0.7l0.7-3c0.4-1.7,0.9-5.6,1.2-8.8l0.5-5.8l-2.5-0.9c-7.2-2.7-24.8,0-36.4,5.7l-7.5,3.7l-18.2,18.2
	l-5.3,8.7c-2.9,4.8-6.1,9.5-7.1,10.4l-1.8,1.7l-2.3-0.6c-1.3-0.3-2.9-1.6-3.7-2.9l-1.4-2.3l-0.4-17.7l-0.4-17.7l-1.3-1.1l-1.3-1.1
	l-6.8,0.3l-6.8,0.3l0.2,13.5c0.1,7.4,0.5,59.2,0.8,115s0.8,102.1,1.1,102.8l0.4,1.2h13.7L862.8,1269.8L862.8,1269.8z M1025.5,1154.5
	v-116l-6.8-0.3l-6.8-0.3l-2.8,2.3v228.4l2.5,2.5l14-0.6V1154.5z M495,1065.5c26.4-79.5,47.8-145,47.5-145.5c-0.3-0.5-1-1-1.6-1
	c-4,0-90.4-57.7-96.1-64.2l-1.7-2l-3.5,5.4c-16.4,25.7-47.9,90.8-60.6,125.2c-1.8,5-3.7,9.4-4.1,10c-0.5,0.5-0.8,1.7-0.8,2.6
	c0,1.1,65,200,69.5,212.8c0.2,0.7,1.1,1.2,1.9,1.2h1.5L495,1065.5z M330,731.9l0.5-86.6l1.4-1.7l1.4-1.7h152.4l2.4-2.4V623l-1.3-0.5
	c-0.7-0.3-35.3-0.6-76.9-0.7l-75.6-0.2l-4.2-3.8V481.4l2.8-3.9l166.7-1v-19h-189L310.3,637c-0.1,98.7,0,180.1,0.2,180.8l0.5,1.3
	l18.5-0.6L330,731.9z M554.8,763.5l-0.3-53.9l-1.1-0.4c-1.9-0.6-52.5,57.4-56.4,64.7l-1.1,2h1.2c0.7,0,3.3,1.7,5.8,3.8
	c8.8,7.4,24.7,19.9,37.5,29.5l12.9,9.7l1.7-1.7L554.8,763.5z M583,744.5l0.5-74l2.8-10.3c5-18.4,11.5-30,22.5-40.5
	c8.1-7.7,14.8-11.7,25.6-15.3l8-2.7l11.3-0.5c6.2-0.3,11.5-0.8,11.7-1.2c0.2-0.4,0.9-4.4,1.5-9.1l1.1-8.4l-0.9-0.9
	c-0.5-0.5-5.2-0.9-10.3-0.9l-9.4,0.1l-6.2,1.6c-17.7,4.6-31.4,16.2-44.6,37.7l-5.1,8.3l-6.3,0.6l-1.7-2.6l-1.7-2.6l-0.4-16.2
	c-0.2-8.9-0.6-17.2-0.9-18.5l-0.5-2.3l-7.7,0.3l-7.7,0.3l0.2,13c0.1,7.2,0.5,58.7,0.8,114.5s0.8,102.1,1.1,102.8l0.4,1.3l15.5-0.6
	L583,744.5z M439.2,703.8c9-11.4,35.6-42.4,39.2-45.7c3.2-3,3.3-4.7,0.4-5.4c-2.9-0.8-88.6-0.8-91.5,0c-1.2,0.3-2.2,0.9-2.2,1.3
	c0,1.3,16.2,22.4,28.4,36.9c6.6,7.9,13.4,16.1,15.1,18.2c1.6,2.1,3.1,3.9,3.2,3.9S435.1,708.9,439.2,703.8L439.2,703.8z M650,1286.9
	c-22.4-2.4-41.1-11.9-53.7-27.1c-5.5-6.7-11.7-19.2-14-28.4l-1.7-7l0.1-28l1.6-7.1c3.2-14.1,8.1-23.4,17.9-33.3
	c11.1-11.3,21.6-17.7,38.9-23.4c18.9-6.3,39-8.7,72.1-8.7h20.7l1.7-1.7l1.7-1.7l-0.7-9.6c-0.8-11.4-2.7-19.7-6-26.7l-2.5-5.1l-5-4.7
	l-5-4.7l-7.2-3.4c-4-1.9-10.8-4.2-15.2-5.1l-8-1.6l-24,1.1l-7.5,2.1c-11,3.1-22.3,9.1-32.4,17c-4.9,3.9-9.7,7-10.6,7
	c-2.1,0-6.1-4.3-14.4-15.4l-6.6-8.9v-5l5.8-5.4c18.7-17.5,47-28.9,76.8-30.9l10-0.7l9.9,1.2c45.7,5.5,71,29.6,76.6,73.1l1,7.4
	l0.1,49.5c0.1,52.1,1.1,88,3.1,111.8l1.2,14.3l-1.7,1.7l-1.7,1.7h-29.9l-2.9-3l-1.2-10.5c-0.7-5.8-1.6-10.9-2-11.4l-0.8-0.9
	l-18.7,18.1l-9.4,4.6C689.2,1286.6,671.6,1289.3,650,1286.9L650,1286.9z M687.1,1274.2c4.2-1.1,11-3.7,15-5.7l7.4-3.7l16.2-16.2
	l4.3-7.3c2.4-4,5.4-8,6.6-8.8l2.3-1.5l2.1,0.7c1.1,0.4,2.7,1.6,3.4,2.8l1.4,2.2l0.6,14c0.3,7.7,1,15.3,1.4,17l0.8,3h13.9l-0.1-3.5
	c-0.1-1.9-0.7-12.9-1.3-24.5s-1.6-50-2-85.5l-0.8-64.5l-2.1-8.3c-1.2-4.6-3.8-11.8-5.8-16l-3.7-7.7l-7.1-7.2l-7.1-7.2l-9.4-4.6
	c-5.2-2.5-13.2-5.5-17.9-6.6l-8.5-2.1l-26-1.2l-9.2,1.6c-12.5,2.2-27.1,6.9-37.3,12.2c-8.7,4.5-19.7,12.4-20.6,14.9l-0.5,1.4
	l4.2,5.6c2.3,3.1,4.4,5.6,4.7,5.6s4.8-2.9,10.1-6.4c10.7-7.1,20.4-11.6,32-14.8l7.6-2.1h31l7.6,2.1c4.2,1.2,10.8,3.7,14.7,5.6l7,3.5
	l6.1,5.6c6.9,6.4,11,12.9,14.2,23l2.2,7l0.5,16.8l0.5,16.8l-1.8,2l-1.8,2l-16.6,0c-18.8,0-45.7,1.5-57.6,3.1
	c-26.8,3.7-46.6,12.7-60.6,27.6l-6.6,7l-2.6,5.5c-4.1,8.6-5.8,16.2-6.3,28.7l-0.5,11.5l1.6,8.3l1.6,8.3l3.7,7.7l3.7,7.7l15.2,15.2
	l7,3.5c8.5,4.3,11.7,5.3,22,7.2l8,1.5l26-0.8L687.1,1274.2L687.1,1274.2z M650,1258.5c-3.6-0.8-9.9-3.1-14-5.2l-7.5-3.7l-6.1-6.1
	l-6.1-6.1l-2.8-5.5c-3.9-7.7-5.5-14.2-5.5-23c0-14.7,4.5-25.5,15.1-36.1l6.6-6.6l9.2-4.6c19.8-9.9,42.8-13.6,84.8-13.6l17.2,0l4,4
	v30.8l-2,11.4c-1.1,6.3-3,14.4-4.4,18.1c-8,22.1-26.3,38.5-50.1,44.8l-7.1,1.9l-25,0.9L650,1258.5z M687,1246.6
	c14.3-4,27.3-13.2,34.8-24.8c7.7-11.9,11.3-25.6,12.6-48.1l0.6-10.8l-1.1-2.1l-1.1-2.1l-23.6,0.6c-33.5,0.8-47.2,3.2-63.9,11.3
	l-9.2,4.4l-11.1,10.9l-5.4,11.6v22l6.6,13.4l4.4,3.8c5.5,4.8,12.7,8.8,19.7,10.8l5.4,1.5l26-0.9L687,1246.6z M1006.1,961.4l-5.3-2.6
	l-3.3-4.6c-4.1-5.6-5.7-10.8-5.7-18.1c0-7.7,1.7-13.2,5.5-18.2c3.9-5.2,8.6-8.4,14.1-9.9l4.1-1.1l4.7,0.6
	c13.2,1.6,22.3,11.7,23.5,26.2l0.5,6.2l-3.5,11.3l-3.9,4.4c-2.1,2.4-5.8,5.3-8.2,6.5l-4.3,2.1h-13L1006.1,961.4z M1025.1,952
	c1-0.5,3.1-2.6,4.6-4.6l2.7-3.6l0.8-11.6l-1.1-3.4c-0.6-1.9-2.7-4.9-4.6-6.8l-3.4-3.3l-10.6-0.8l-3.4,2.3c-1.9,1.3-4.4,3.9-5.5,5.8
	l-2,3.5l0,6l0,6l2.4,4.2l2.4,4.2l8.2,4.1l3.9-0.6C1021.5,953.2,1024.1,952.5,1025.1,952L1025.1,952z M785,834.5
	c-15.2-2.6-30.1-8.8-43.4-17.7c-8.8-5.9-21.3-18.9-27.9-28.9c-14.7-22.2-22.1-46.9-23.4-78.4l-0.6-14L691,685
	c4-34.8,16-61.9,36.5-82.6c16.9-17,34.9-26.8,57.2-31l8.9-1.7l30,1l8.5,2.2c38.2,9.9,66.2,40.8,76.7,85l2.5,10.5l0.5,21.8l0.5,21.8
	l-1.8,2l-1.8,2H730l-0.6,1.5c-0.8,2.1,2.3,18.1,5.1,26.4c8.8,26,28.7,45.6,52.5,51.7l6.5,1.7l23,0l6.9-1.7
	c20.3-5,38.4-17.7,49.9-35.2l3.3-5h6.3l22.2,20.7v5.4l-5.7,8.4c-16.3,24.3-39.9,38.9-71.8,44.5l-9,1.6l-13-0.1
	C798.4,835.9,789.1,835.2,785,834.5L785,834.5z M825,823.9c16.6-2.3,34.6-9.7,46.9-19.4l7.4-5.8l12.8-16.2v-4.4l-5.2-4.5
	c-2.9-2.5-5.7-4.3-6.2-4c-0.6,0.3-3.2,3.1-5.8,6.4c-2.6,3.3-7.8,8.4-11.5,11.5l-6.7,5.6l-11,5.4c-6,3-13.9,6.2-17.5,7.2l-6.5,1.7
	h-33l-7.5-2.3c-10.4-3.3-17.5-7.1-26.4-14.1c-12.9-10.2-23.6-25.4-29.6-41.8c-3.5-9.7-7-27.2-7-35.2v-5.9l4.4-3.1H901l0.6-2.6
	c1.6-6.5-1.5-36.5-5.2-49.3c-8.5-29.6-26.2-51.8-50.7-63.6c-10.9-5.3-18.3-7.3-31.4-8.5l-9.8-0.9l-10,1c-12.3,1.2-19.6,3.2-30.1,8
	c-30.8,14.1-51.9,42.5-60.7,81.9l-2.1,9.6l0,22.5l0,22.5l2.2,10c4.5,20.5,11.9,37.6,22.4,51.5l6.2,8.2l7.9,6.7
	C763.3,821.6,790.6,828.7,825,823.9L825,823.9z M719.7,686.2c-2.2-2.4-2.1-6.6,0.4-16.5c5.7-22.6,17.8-42,34.2-55.2
	c9.6-7.7,17.7-11.9,28.2-14.5l8-2.1l23-0.1l7,1.7c29.9,7.4,54.2,32.1,61.5,62.8l2,8.2l0,14.2l-3.7,3.3h-159L719.7,686.2L719.7,686.2
	z M872.8,673.3c0.5-4.9-3.4-17.8-8.1-26.8l-4.2-8l-18-18.2l-19-9.2l-16.8-3.3l-8.3,0.7c-16.4,1.3-27.2,5.6-38.5,15.4
	c-8,6.9-14.1,14.2-19.7,23.9c-4.7,8.1-10.7,25.3-9.8,27.7l0.6,1.6l141.6-0.5L872.8,673.3z M1047.5,834.4
	c-45.8-8.3-79.9-44.4-90.5-95.9c-4-19.2-4.1-50.4-0.4-68.8c10.5-52,46.2-90.1,91.9-98.2c9.4-1.7,28.3-1.8,37.5-0.4
	c32.3,5.2,59.3,25.3,74.8,55.8c10.9,21.3,15.2,42,15.2,72.7l0,12.1l-2.8,3.9l-179.7,1l-0.3,3.3c-0.4,4.7,2.5,18.5,5.8,27
	c6.3,16.3,17.8,30.9,31.6,40.1c8.8,5.9,16.8,8.7,29.2,10.1l9.2,1.1l8.8-1.1c24-2.9,45.5-16,58.2-35.5l4.3-6.5h5.7l10.3,9.6
	c11.8,11.1,12.8,12.1,12.8,14.5c0,2.8-10,16.8-17.9,25.2l-7.4,7.8l-8.2,5.4c-12.5,8.3-28.3,14.3-45.4,17l-8.5,1.4l-13-0.1
	C1061.4,835.8,1051.9,835.1,1047.5,834.4L1047.5,834.4z M1088,823.9c21.1-2.9,39.2-11.2,52.8-24.3c6.2-5.9,15.2-17.4,15.2-19.4
	c0-0.5-2.5-3.4-5.6-6.3l-5.6-5.3l-4.1,4.9c-13.8,16.6-30.6,27.2-51.4,32.4l-7.8,2l-24.4,0l-6.8-1.4c-15-3.2-25.5-8.9-37.5-20.4
	l-7.9-7.6l-5.4-8.2c-10-15.1-15.1-29.6-17.5-50.4l-1.2-10.3l4.3-4.3l179.4-1l-0.2-33l-2.6-11.3c-9.5-41.5-37-70.6-73.5-77.9
	l-7.7-1.5l-25,0l-8,1.7c-10.3,2.2-19,5.6-28.9,11.4l-7.9,4.6l-8.3,7.9c-4.6,4.3-10.6,10.9-13.3,14.5c-10.5,13.9-19.1,34.7-22.6,54.6
	l-1.8,10v35l1.7,10c4.7,26.9,14.9,48.5,30.6,64.8C1020.3,819.7,1050.2,829.1,1088,823.9L1088,823.9z M983,685.8l-2.1-2.2l0.6-4.5
	c2-13.6,8.9-31.2,17.4-44c11.8-17.8,31.2-31.8,49.5-35.7l7.2-1.5l22,0l7.5,2c23.7,6.2,42.8,22,54.3,44.9c3.9,7.6,7.6,21.4,8.3,30.8
	l0.6,8.2l-4.3,4.3H985.1L983,685.8L983,685.8z M1136.6,675.7c0.8-2-2.1-14.7-4.9-21.6c-4-9.9-8.7-16.9-16.7-25l-7.5-7.6l-6.5-3.8
	c-3.6-2.1-10.1-5-14.5-6.4l-8-2.6l-24-0.1l-6.2,1.7c-19.4,5.2-36.1,20.2-47.3,42.5c-4,7.9-8,20.7-7.3,22.9l0.4,1.2h141.9
	L1136.6,675.7L1136.6,675.7z M1373,522.4c-68.9-27.3-140.2-43.7-217.5-50l-20-1.6l-37.8-0.1c-20.8-0.1-37.8-0.2-37.8-0.3
	s4.6-2.8,10.2-5.9s14.8-8.5,20.2-12l10-6.2l5,0.9c2.8,0.5,12.2,1,21,1l16,0.1l20.4-4.3l24.2-10.2l1.5-2.3l1.5-2.3l-1.6-3.1
	c-2-3.9-8.6-8.7-13.8-10.1c-2.2-0.6-9.6-1.6-16.4-2.2l-12.5-1.2l6.8-6c3.7-3.3,11.4-10.4,17-15.8l10.2-9.8l0.8,2.3l22,2.8
	c73.5,9.3,148.1,28.8,211,55.2l8,3.4l0.6,4.4l-14.8,39.3c-13.3,35.3-15.6,40.8-17.4,40.7C1389.7,529,1382.1,526,1373,522.4
	L1373,522.4z M1065,455.6c1.9-1.3,4.6-2.7,6-3.1l2.5-0.7l-5,3C1062.6,458.5,1060,459.1,1065,455.6L1065,455.6z M986.3,443.2
	c-0.9-0.6-8.3-18.2-8.3-19.8c0-0.6,9.3-4.5,9.7-4.1c1.6,1.6,12.1,22.3,11.6,22.8C998.1,443.2,987.6,444.1,986.3,443.2L986.3,443.2z
	 M1118.9,436.4c2.7-3.4,2.6-5-0.5-7.8c-1.4-1.3-2.2-2.6-1.7-2.9c1.1-0.7,14.9-2.4,25.3-3.1c9-0.6,26.2,0.8,31.8,2.6l3.3,1.1
	l-0.4,1.2c-0.7,2-15.5,7.8-25.1,9.7l-9.2,1.9l-25.6,0L1118.9,436.4L1118.9,436.4z M1136,406.2c4.1-3.7,14-12.8,22-20.2
	c8-7.4,16.1-14.8,17.9-16.5l3.4-3.1l-4.1,5c-9.5,11.6-42.1,41.5-45,41.5l-1.7,0L1136,406.2L1136,406.2z"/>
<path class="st4" d="M768.5,1599c-16.4-0.8-45.1-3.4-66.5-6c-281.9-34.4-525.4-217.8-637.3-480c-32.5-76.1-53.4-159.7-60.1-240
	c-0.9-10.2-2-21.7-2.5-25.5s-1.2-18-1.5-31.5l-0.6-24.5l1-19c2.6-48.3,7.9-91.4,16.2-132.5c55.7-273.8,252-499.5,516.2-593.4
	C608.7,19.9,687.4,5,776.3,0.9L799-0.2l23.7,1.1c111.3,5,206.6,26.7,301.7,68.9c179.5,79.5,326.2,226.2,405.8,405.8
	c42.1,95,63.8,190,68.9,301.2l1.1,23.2l-1.1,23.2c-5,111-26.8,206.4-68.6,300.7c-109.7,247.4-340.7,424.7-606.5,465.4
	C868.3,1597.9,814.4,1601.3,768.5,1599L768.5,1599z M850.5,1565c78.3-5.1,156.4-22.5,229.5-51.2c23.9-9.4,39.4-16.4,66-29.8
	c107.1-54.1,198-131.1,271.5-229.9c38.4-51.6,72.2-112.8,96.3-174c24.8-63,40.9-128.6,48.3-195.9c3.3-30.5,4.3-49.6,4.3-84.1
	c0-73.9-8.9-138.9-28.3-208.1c-13.6-48.1-30.4-91.1-54-137.9c-14.3-28.3-27-50.2-43.4-75c-44.5-67.2-100.9-128.9-163.3-178.8
	C1218,153,1150.5,114,1080,86.3c-73.4-28.8-148.3-45.6-230-51.3c-21.6-1.5-79-1.5-100,0C680.1,40,618,52.3,555.3,73.4
	c-37,12.5-64.7,24.2-101.3,42.7c-71.6,36.2-132.6,80-189.9,136.3c-31.8,31.3-52.6,55-78.4,89.4C145,396.1,111.1,456.7,86.3,520
	c-28.8,73.4-45.4,147.7-51.4,230c-1.5,21.3-1.5,78.7,0,100c5,69.9,17.3,132,38.5,194.7c12.5,37,24.2,64.7,42.7,101.3
	c36,71.2,80.8,133.5,137.4,190.9c31,31.4,55.1,52.6,87.5,77c53.5,40.2,116.3,75.2,179.1,99.9c81.6,32.1,164.5,49.1,257,52.7
	C789.9,1566.9,833.6,1566.1,850.5,1565L850.5,1565z M235.7,1294.7c-0.7-1.9,1-56.2,2.3-72.6c6.6-83.4,21.3-157.2,46.5-232.5
	c8.2-24.5,19.4-54.6,21.7-58.3l1.2-1.9l-4.1-12.4c-4.4-13.2-4.9-16.1-2.9-17.7c0.7-0.6,5.5-1.2,10.7-1.4l9.4-0.3l0.4-1.1
	c0.2-0.6,6.2-12.7,13.2-27c12.3-24.7,24.8-47.9,34-62.8c2.3-3.8,5.3-9.2,6.5-12c4.7-10.5,54-81.6,56.6-81.6c0.5,0,4.1-4.2,8.2-9.2
	c9-11.4,35.6-42.4,39.2-45.7c1.4-1.3,2.6-3,2.6-3.7v-1.3l-3.2-0.6c-3.3-0.6-72.9,0-113.3,1l-22.1,0.5l-0.7,85.6l-0.7,85.6l-3,4.6
	h-34.6l-3.4-2.5l-0.5-55c-0.3-30.2-0.7-114.3-1-186.8L298,453.8l1-3.9l1-3.9h206l1.9,1l1.9,1v36.7l-3.3,2.7l-165.2,1l0.1,59.8
	l0.1,59.8l2.4,2.4l151.9,0.7l3,4.3V634h0.9c0.5,0,7.8-6.6,16.3-14.8c20.1-19.3,33.4-31.2,34.6-31.2c1.4,0,2.2-2.5,2.2-6.5v-3.4
	l1.9-1c1.1-0.6,3.7-1,5.8-1h3.9l3.9-3.5c6.4-5.8,31.8-25.3,47.4-36.5c115.7-82.8,252-135.5,390.5-150.9c32-3.6,42.4-4.2,81-4.8
	c36.6-0.5,61.9,0.1,61.3,1.6c-0.5,1.2-16.3,15.5-29.6,26.8l-12.3,10.5l-12.6,3.9c-12.3,3.8-17.9,5-47,10.3c-16.5,3-37.1,5.7-38.2,5
	c-0.4-0.3-2.9-4.4-5.5-9.2c-2.6-4.8-5.8-10.6-7.1-12.9l-2.4-4.2l6.3-4.2c11.3-7.6,12.5-9.3,8.8-12.9l-2-2h-8.6l-7,4.3
	c-3.8,2.4-11,6.5-16,9.2c-10.5,5.7-19.2,11.4-21.9,14.4l-1.9,2.1l3.3,5.1l3.7,0c2,0,5-0.7,6.6-1.5s3.2-1.2,3.6-0.7s1.9,4.4,3.4,8.8
	s3.7,10,4.9,12.5l2.2,4.5l7,1.8l16.5-1.6c18.8-1.8,52.2-4.6,56-4.6h2.5l-3.5,2.3c-9.4,6.3-26.6,15.4-39.9,21.1
	c-8.1,3.5-16.3,7.1-18.1,8l-3.3,1.7l-4.6-2.1l-17.3,3c-19.1,3.3-49.6,9.9-60,13l-6.8,2l0,1.2c0,0.7-1.3-0.2-2.8-1.9
	c-5-5.7-9.7-6.9-13.3-3.3l-2.1,2.1l0.6,3.2l0.6,3.2l-7.6,2.2c-14.1,4.2-47.8,16.3-65.9,23.9c-44.9,18.7-85,40-131.2,69.8l-9.2,5.9
	l-0.7,3.5c-0.4,1.9-1.1,4.3-1.7,5.4l-1,1.9l-10-1.2l-14.2,10.7c-23.9,18-51.5,41.3-53.6,45.2c-0.6,1.1-1.5,7.3-2,13.8l-1,11.8
	l0,67.2l0,67.2l-1.8,0.9c-1,0.5-8.7,1.2-17.2,1.6l-15.5,0.7l-1.9-1.4l-1.9-1.4l-0.1-59.3l-0.1-59.3l-1.1-0.4
	c-2.2-0.7-53.9,59.1-56.7,65.6c-0.6,1.4-5,7.8-9.8,14.2c-10.7,14.2-29.6,42.2-36.8,54.4c-2.9,5-5.9,9.3-6.6,9.8
	c-2.7,1.7-18.4,29.7-33.8,60.6c-10,20-21.6,46.2-29.2,66.2c-2.4,6.3-4.9,12.5-5.6,13.8l-1.1,2.3l7.2,22.2
	c4,12.2,19.7,60.3,35.1,106.7l27.9,84.5l3.1,0.6l47.6-143.2c26.2-78.7,47.8-144.6,48-146.3c0.2-1.7,1.9-7.4,3.7-12.6l3.3-9.5l5-2.6
	l35.4,0.6l1.7,1.7l1.7,1.7l-0.1,2.8c-0.1,3.2-10.2,33.2-13.7,40.8c-1.3,2.8-27.6,79.2-58.5,170c-30.9,90.8-56.8,165.7-57.6,166.5
	l-1.4,1.5h-34.9l-1.5-1.5c-0.8-0.8-17.3-48.7-36.5-106.4c-19.3-57.7-35.4-105.3-35.9-105.8l-0.9-0.9l-1.1,2.8
	c-3.6,9.3-12.7,50.3-17.6,79.9c-6.9,40.9-10.2,74.8-11.5,117.1c-0.5,14.9-1.1,27.6-1.5,28.2l-0.7,1.1h-83.7L235.7,1294.7
	L235.7,1294.7z M455.8,1269.8c1.7-2,123.3-359.8,122.7-360.8c-0.7-1.1-17.4-1.2-19.1-0.2c-0.6,0.4-25.3,73.4-54.9,162.2
	c-29.6,88.8-54.5,162.3-55.3,163.3l-1.6,1.8l-4.9-0.6l-1.8-2.5c-1-1.4-25.5-74.7-54.5-163s-53.2-160.8-53.8-161.2
	c-1.5-1-19.4-1-20,0.1c-0.3,0.5,3.5,13,8.5,27.8c5,14.8,32,95.5,60,179.3c28,83.8,51.4,153,52,153.8l1.1,1.3h20.5L455.8,1269.8z
	 M330,731.9l0.5-86.6l1.4-1.7l1.4-1.7h152.4l2.4-2.4V623l-1.3-0.5c-0.7-0.3-35.3-0.6-76.9-0.7l-75.6-0.2l-4.2-3.8V481.4l2.8-3.9
	l166.7-1v-19h-189L310.2,637c-0.1,98.7,0,180.1,0.2,180.8l0.5,1.3l18.5-0.6L330,731.9z M583,744.5l0.5-74l2.8-10.3
	c5-18.4,11.5-30,22.5-40.5c8.1-7.7,14.8-11.7,25.6-15.3l8-2.7l11.3-0.5c6.2-0.3,11.5-0.8,11.7-1.2c0.2-0.4,0.9-4.4,1.5-9.1l1.1-8.4
	l-0.9-0.9c-0.5-0.5-5.2-0.9-10.3-0.9l-9.4,0.1l-6.2,1.6c-17.7,4.6-31.4,16.2-44.6,37.7l-5.1,8.3l-6.3,0.6l-1.7-2.6l-1.7-2.6
	l-0.4-16.2c-0.2-8.9-0.6-17.2-0.9-18.5l-0.5-2.3l-7.7,0.3l-7.7,0.3l0.2,13c0.1,7.2,0.5,58.7,0.8,114.5s0.8,102.1,1.1,102.8l0.4,1.3
	l15.5-0.6L583,744.5z M650,1286.9c-22.4-2.4-41.1-11.9-53.7-27.1c-5.5-6.7-11.7-19.2-14-28.4l-1.7-7l0.1-28l1.6-7.1
	c3.2-14.1,8.1-23.4,17.9-33.3c11.1-11.3,21.6-17.7,38.9-23.4c18.9-6.3,39-8.7,72.1-8.7h20.7l1.7-1.7l1.7-1.7l-0.7-9.6
	c-0.8-11.4-2.7-19.7-6-26.7l-2.5-5.1l-5-4.7l-5-4.7l-7.2-3.4c-4-1.9-10.8-4.2-15.2-5.1l-8-1.6l-24,1.1l-7.5,2.1
	c-11,3.1-22.3,9.1-32.4,17c-4.9,3.9-9.7,7-10.6,7c-2.1,0-6.1-4.3-14.4-15.4l-6.6-8.9v-5l5.8-5.4c18.7-17.5,47-28.9,76.8-30.9l10-0.7
	l9.9,1.2c45.7,5.5,71,29.6,76.6,73.1l1,7.4l0.1,49.5c0.1,52.1,1.1,88,3.1,111.8l1.2,14.3l-1.7,1.7l-1.7,1.7h-29.9l-2.9-3l-1.2-10.5
	c-0.7-5.8-1.6-10.9-2-11.4l-0.8-0.9l-18.7,18.1l-9.4,4.6C689.2,1286.6,671.6,1289.3,650,1286.9L650,1286.9z M687.1,1274.2
	c4.2-1.1,11-3.7,15-5.7l7.4-3.7l16.2-16.2l4.3-7.3c2.4-4,5.4-8,6.6-8.8l2.3-1.5l2.1,0.7c1.1,0.4,2.7,1.6,3.4,2.8l1.4,2.2l0.6,14
	c0.3,7.7,1,15.3,1.4,17l0.8,3h13.9l-0.1-3.5c-0.1-1.9-0.7-12.9-1.3-24.5s-1.6-50-2-85.5l-0.8-64.5l-2.1-8.3
	c-1.2-4.6-3.8-11.8-5.8-16l-3.7-7.7l-7.1-7.2l-7.1-7.2l-9.4-4.6c-5.2-2.5-13.2-5.5-17.9-6.6l-8.5-2.1l-26-1.2l-9.2,1.6
	c-12.5,2.2-27.1,6.9-37.3,12.2c-8.7,4.5-19.7,12.4-20.6,14.9l-0.5,1.4l4.2,5.6c2.3,3.1,4.4,5.6,4.7,5.6s4.8-2.9,10.1-6.4
	c10.7-7.1,20.4-11.6,32-14.8l7.6-2.1h31l7.6,2.1c4.2,1.2,10.8,3.7,14.7,5.6l7,3.5l6.1,5.6c6.9,6.4,11,12.9,14.2,23l2.2,7l0.5,16.8
	l0.5,16.8l-1.8,2l-1.8,2l-16.6,0c-18.8,0-45.7,1.5-57.6,3.1c-26.8,3.7-46.6,12.7-60.6,27.6l-6.6,7l-2.6,5.5
	c-4.1,8.6-5.8,16.2-6.3,28.7l-0.5,11.5l1.6,8.3l1.6,8.3l3.7,7.7l3.7,7.7l15.2,15.2l7,3.5c8.5,4.3,11.7,5.3,22,7.2l8,1.5l26-0.8
	L687.1,1274.2L687.1,1274.2z M650,1258.5c-3.6-0.8-9.9-3.1-14-5.2l-7.5-3.7l-6.1-6.1l-6.1-6.1l-2.8-5.5c-3.9-7.7-5.5-14.2-5.5-23
	c0-14.7,4.5-25.5,15.1-36.1l6.6-6.6l9.2-4.6c19.8-9.9,42.8-13.6,84.8-13.6l17.2,0l4,4v30.8l-2,11.4c-1.1,6.3-3,14.4-4.4,18.1
	c-8,22.1-26.3,38.5-50.1,44.8l-7.1,1.9l-25,0.9L650,1258.5z M687,1246.6c14.3-4,27.3-13.2,34.8-24.8c7.7-11.9,11.3-25.6,12.6-48.1
	l0.6-10.8l-1.1-2.1l-1.1-2.1l-23.6,0.6c-33.5,0.8-47.2,3.2-63.9,11.3l-9.2,4.4l-11.1,10.9l-5.4,11.6v22l6.6,13.4l4.4,3.8
	c5.5,4.8,12.7,8.8,19.7,10.8l5.4,1.5l26-0.9L687,1246.6z M1200.7,1286.9c-10.9-1.1-25.4-5.2-35.4-9.9c-40.1-18.8-65-58-69.3-108.9
	l-1.1-13.4l1.1-13.8c0.6-7.6,1.6-15.3,2.1-17.1c0.5-1.8,0.9-4.9,0.9-6.8c0-8.4,9.8-31.8,19-45.6c5-7.4,21.4-25.4,23.1-25.4
	c0.4,0,3.9-2.1,7.6-4.7c15.7-10.8,34.7-17.5,55.5-19.5l11.7-1.1l11.3,1.2c30.2,3.1,51.2,13.5,73.4,36.2
	c10.9,11.2,14.2,15.6,19.7,26.3c6.5,12.7,9.2,20.4,12.8,36l2.1,9l-0.1,20.5c-0.2,21.5-0.9,29.3-4,42.5
	c-5.6,23.7-16.2,43.4-31.8,59.7C1273,1279.4,1239.9,1291.1,1200.7,1286.9L1200.7,1286.9z M1233.5,1275.6
	c33.5-5.4,61.2-26.1,76.9-57.4c5-10,10.1-25.6,12.2-37.7l1.7-10v-32l-1.7-10c-3.2-18.2-10.6-37.3-19.8-50.9
	c-5.4-7.9-16.6-19.6-24.6-25.6c-17.1-12.8-39.7-20-62.6-20c-56.9,0-99.4,39.8-107.9,101c-6.1,43.8,6.7,87.5,33.3,114.1
	c19.6,19.5,44.3,29.5,73.6,29.8C1220,1277,1228.5,1276.4,1233.5,1275.6L1233.5,1275.6z M1200.4,1259c-15-2.7-31.2-10.4-43.1-20.6
	c-15.5-13.3-27.5-35.4-32.4-59.8l-1.4-7v-34l1.4-7c4.6-23.3,14.2-42,29.1-56.5l7.7-7.5l8.1-4.8c9.4-5.6,21.6-10.1,32.2-11.7l7.5-1.2
	l10.5,0.5l10.5,0.5l8,2.1c16.2,4.2,32.4,14.5,43.8,27.8c11.4,13.2,18.6,28.5,22.8,48.4l2.2,10.3v32l-2.2,10.5
	c-4.2,19.9-11.3,35-22.8,48.3c-11.4,13.2-27.5,23.5-43.7,27.8l-8,2.1l-12.5,0.3C1211.1,1259.8,1203.2,1259.5,1200.4,1259
	L1200.4,1259z M1239.5,1245.6c35.5-12,57.5-46.8,57.5-91.1l0-9l-2.6-11.5c-3.1-13.9-5.5-21.3-9.6-29.4
	c-13.7-27.4-39.5-43.6-69.3-43.6c-22.3,0-41.1,8.2-56.2,24.4c-7.8,8.4-12.2,15.3-16.4,25.8c-1.6,4-3.6,8.7-4.4,10.4
	c-0.8,1.7-2.2,7.3-3.1,12.5l-1.6,9.4l1,31l2.5,9.7c8.8,33.6,30.7,56.2,61.2,63.4l6,1.4l27-0.7L1239.5,1245.6z M840.5,1281.4
	c-1.1-0.3-2.6-1.2-3.2-2.1l-1.2-1.6l-0.1-94.1c0-51.7-0.5-102.4-1-112.6s-1.2-23.4-1.5-29.5l-0.5-11l3-4h33l2,1.8l2,1.8l0.6,11.1
	c0.4,6.1,0.9,11.4,1.2,11.7c0.3,0.3,3.5-2.7,7-6.6c11.5-12.6,23.3-20,37.8-23.9l6.2-1.6l22-0.2l5.2,1.3c2.8,0.7,5.9,2.2,6.9,3.2
	l1.7,1.9l-0.6,7.3c-0.3,4-1.2,11.9-1.8,17.7l-1.2,10.4l-2,2l-2,2l-4.1-0.9c-2.3-0.5-8.4-0.8-13.6-0.7l-9.5,0.1l-7,2.5
	c-3.8,1.4-8.7,3.2-10.8,3.9c-13.1,5-25.8,22.6-30.7,42.4c-1.1,4.4-2.5,13.2-3,19.5l-1,11.4l0,67.1l0,67.1l-1.7,1.4l-1.7,1.4
	l-14.1,0.2C848.8,1281.8,841.6,1281.6,840.5,1281.4L840.5,1281.4z M862.8,1269.8l1.2-1.2l0-138.1l1.5-9.4
	c4.8-29.8,19.4-51.3,41.9-62.1c7.9-3.8,17.4-6,29.4-6.8l9.5-0.7l0.7-3c0.4-1.7,0.9-5.6,1.2-8.8l0.5-5.8l-2.5-0.9
	c-7.2-2.7-24.8,0-36.4,5.7l-7.5,3.7l-18.2,18.2l-5.3,8.7c-2.9,4.8-6.1,9.5-7.1,10.4l-1.8,1.7l-2.3-0.6c-1.3-0.3-2.9-1.6-3.7-2.9
	l-1.4-2.3l-0.4-17.7l-0.4-17.7l-1.3-1.1l-1.3-1.1l-6.8,0.3l-6.8,0.3l0.2,13.5c0.1,7.4,0.5,59.2,0.8,115s0.8,102.1,1.1,102.8l0.4,1.2
	h13.7L862.8,1269.8L862.8,1269.8z M1002,1280.8l-2.5-1.3l-0.8-92.5c-0.4-50.9-0.9-107-1-124.7l-0.2-32.2l1.8-1.8l1.8-1.8h32.9l4,4
	l-0.6,123.8l-0.6,123.8l-1.3,1.7l-1.3,1.7l-29.7,0.6L1002,1280.8z M1025.5,1154.5v-116l-6.8-0.3l-6.8-0.3l-2.8,2.3v228.4l2.5,2.5
	l14-0.6V1154.5z M1006.1,961.4l-5.3-2.6l-3.3-4.6c-4.1-5.6-5.7-10.8-5.7-18.1c0-7.7,1.7-13.2,5.5-18.2c3.9-5.2,8.6-8.4,14.1-9.9
	l4.1-1.1l4.7,0.6c13.2,1.6,22.3,11.7,23.5,26.2l0.5,6.2l-3.5,11.3l-3.9,4.4c-2.1,2.4-5.8,5.3-8.2,6.5l-4.3,2.1h-13L1006.1,961.4z
	 M1025.1,952c1-0.5,3.1-2.6,4.6-4.6l2.7-3.6l0.8-11.6l-1.1-3.4c-0.6-1.9-2.7-4.9-4.6-6.8l-3.4-3.3l-10.6-0.8l-3.4,2.3
	c-1.9,1.3-4.4,3.9-5.5,5.8l-2,3.5l0,6l0,6l2.4,4.2l2.4,4.2l8.2,4.1l3.9-0.6C1021.5,953.2,1024.1,952.5,1025.1,952L1025.1,952z
	 M785,834.5c-15.2-2.6-30.1-8.8-43.4-17.7c-8.8-5.9-21.3-18.9-27.9-28.9c-14.7-22.2-22.1-46.9-23.4-78.4l-0.6-14l1.2-10.5
	c4-34.8,16-61.9,36.5-82.6c16.9-17,34.9-26.8,57.2-31l8.9-1.7l30,1l8.5,2.2c38.2,9.9,66.2,40.8,76.7,85l2.5,10.5l0.5,21.8l0.5,21.8
	l-1.8,2l-1.8,2H729.9l-0.6,1.5c-0.8,2.1,2.3,18.1,5.1,26.4c8.8,26,28.7,45.6,52.5,51.7l6.5,1.7l23,0l6.9-1.7
	c20.3-5,38.4-17.7,49.9-35.2l3.3-5h6.3l22.2,20.7v5.4l-5.7,8.4c-16.3,24.3-39.9,38.9-71.8,44.5l-9,1.6l-13-0.1
	C798.4,835.9,789.1,835.2,785,834.5L785,834.5z M825,823.9c16.6-2.3,34.6-9.7,46.9-19.4l7.4-5.8l12.8-16.2v-4.4l-5.2-4.5
	c-2.9-2.5-5.7-4.3-6.2-4c-0.6,0.3-3.2,3.1-5.8,6.4c-2.6,3.3-7.8,8.4-11.5,11.5l-6.7,5.6l-11,5.4c-6,3-13.9,6.2-17.5,7.2l-6.5,1.7
	h-33l-7.5-2.3c-10.4-3.3-17.5-7.1-26.4-14.1c-12.9-10.2-23.6-25.4-29.6-41.8c-3.5-9.7-7-27.2-7-35.2v-5.9l4.4-3.1H901l0.6-2.6
	c1.6-6.5-1.5-36.5-5.2-49.3c-8.5-29.6-26.2-51.8-50.7-63.6c-10.9-5.3-18.3-7.3-31.4-8.5l-9.8-0.9l-10,1c-12.3,1.2-19.6,3.2-30.1,8
	c-30.8,14.1-51.9,42.5-60.7,81.9l-2.1,9.6l0,22.5l0,22.5l2.2,10c4.5,20.5,11.9,37.6,22.4,51.5l6.2,8.2l7.9,6.7
	C763.3,821.6,790.6,828.7,825,823.9L825,823.9z M719.6,686.2c-2.2-2.4-2.1-6.6,0.4-16.5c5.7-22.6,17.8-42,34.2-55.2
	c9.6-7.7,17.7-11.9,28.2-14.5l8-2.1l23-0.1l7,1.7c29.9,7.4,54.2,32.1,61.5,62.8l2,8.2l0,14.2l-3.7,3.3h-159L719.6,686.2L719.6,686.2
	z M872.8,673.3c0.5-4.9-3.4-17.8-8.1-26.8l-4.2-8l-18-18.2l-19-9.2l-16.8-3.3l-8.3,0.7c-16.4,1.3-27.2,5.6-38.5,15.4
	c-8,6.9-14.1,14.2-19.7,23.9c-4.7,8.1-10.7,25.3-9.8,27.7l0.6,1.6l141.6-0.5L872.8,673.3z M1047.5,834.4
	c-45.8-8.3-79.9-44.4-90.5-95.9c-4-19.2-4.1-50.4-0.4-68.8c10.5-52,46.2-90.1,91.9-98.2c9.4-1.7,28.3-1.8,37.5-0.4
	c32.3,5.2,59.3,25.3,74.8,55.8c10.9,21.3,15.2,42,15.2,72.7l0,12.1l-2.8,3.9l-179.7,1l-0.3,3.3c-0.4,4.7,2.5,18.5,5.8,27
	c6.3,16.3,17.8,30.9,31.6,40.1c8.8,5.9,16.8,8.7,29.2,10.1l9.2,1.1l8.8-1.1c24-2.9,45.5-16,58.2-35.5l4.3-6.5h5.7l10.3,9.6
	c11.8,11.1,12.8,12.1,12.8,14.5c0,2.8-10,16.8-17.9,25.2l-7.4,7.8l-8.2,5.4c-12.5,8.3-28.3,14.3-45.4,17l-8.5,1.4l-13-0.1
	C1061.3,835.9,1051.9,835.2,1047.5,834.4L1047.5,834.4z M1088,823.9c21.1-2.9,39.2-11.2,52.8-24.3c6.2-5.9,15.2-17.4,15.2-19.4
	c0-0.5-2.5-3.4-5.6-6.3l-5.6-5.3l-4.1,4.9c-13.8,16.6-30.6,27.2-51.4,32.4l-7.8,2l-24.4,0l-6.8-1.4c-15-3.2-25.5-8.9-37.5-20.4
	l-7.9-7.6l-5.4-8.2c-10-15.1-15.1-29.6-17.5-50.4l-1.2-10.3l4.3-4.3l179.4-1l-0.2-33l-2.6-11.3c-9.5-41.5-37-70.6-73.5-77.9
	l-7.7-1.5l-25,0l-8,1.7c-10.3,2.2-19,5.6-28.9,11.4l-7.9,4.6l-8.3,7.9c-4.6,4.3-10.6,10.9-13.3,14.5c-10.5,13.9-19.1,34.7-22.6,54.6
	l-1.8,10v35l1.7,10c4.7,26.9,14.9,48.5,30.6,64.8C1020.3,819.7,1050.2,829.1,1088,823.9L1088,823.9z M983,685.8l-2.1-2.2l0.6-4.5
	c2-13.6,8.9-31.2,17.4-44c11.8-17.8,31.2-31.8,49.5-35.7l7.2-1.5l22,0l7.5,2c23.7,6.2,42.8,22,54.3,44.9c3.9,7.6,7.6,21.4,8.3,30.8
	l0.6,8.2l-4.3,4.3H985.1L983,685.8L983,685.8z M1136.6,675.7c0.8-2-2.1-14.7-4.9-21.6c-4-9.9-8.7-16.9-16.7-25l-7.5-7.6l-6.5-3.8
	c-3.6-2.1-10.1-5-14.5-6.4l-8-2.6l-24-0.1l-6.2,1.7c-19.4,5.2-36.1,20.2-47.3,42.5c-4,7.9-8,20.7-7.3,22.9l0.4,1.2h141.9
	L1136.6,675.7L1136.6,675.7z M1373,522.4c-68.9-27.3-140.2-43.7-217.5-50l-20-1.6l-37.8-0.1c-20.8-0.1-37.8-0.2-37.8-0.3
	s4.6-2.8,10.2-5.9s14.8-8.5,20.2-12l10-6.2l5,0.9c2.8,0.5,12.2,1,21,1l16,0.1l20.4-4.3l24.2-10.2l1.5-2.3l1.5-2.3l-1.6-3.1
	c-2-3.9-8.6-8.7-13.8-10.1c-2.2-0.6-9.6-1.6-16.4-2.2l-12.5-1.2l6.8-6c3.7-3.3,11.4-10.4,17-15.8l10.2-9.8l0.8,2.3l22,2.8
	c73.5,9.3,148.1,28.8,211,55.2l8,3.4l0.6,4.4l-14.8,39.3c-13.3,35.3-15.6,40.8-17.4,40.7C1389.7,529,1382.1,526,1373,522.4
	L1373,522.4z M1065,455.7c1.9-1.3,4.6-2.7,6-3.1l2.5-0.7l-5,3C1062.6,458.5,1060,459.1,1065,455.7L1065,455.7z M986.3,443.2
	c-0.9-0.6-8.3-18.2-8.3-19.8c0-0.6,9.3-4.5,9.7-4.1c1.6,1.6,12.1,22.3,11.6,22.8C998,443.2,987.6,444.1,986.3,443.2L986.3,443.2z
	 M1118.9,436.4c2.7-3.4,2.6-5-0.5-7.8c-1.4-1.3-2.2-2.6-1.7-2.9c1.1-0.7,14.9-2.4,25.3-3.1c9-0.6,26.2,0.8,31.8,2.6l3.3,1.1
	l-0.4,1.2c-0.7,2-15.5,7.8-25.1,9.7l-9.2,1.9l-25.6,0L1118.9,436.4L1118.9,436.4z M1136,406.2c4.1-3.7,14-12.8,22-20.2
	c8-7.4,16.1-14.8,17.9-16.5l3.4-3.1l-4.1,5c-9.5,11.6-42.1,41.5-45,41.5l-1.7,0L1136,406.2L1136,406.2z"/>
<path class="st5" d="M768.5,1599c-16.4-0.8-45.1-3.4-66.5-6c-281.9-34.4-525.4-217.8-637.3-480c-32.5-76.1-53.4-159.7-60.1-240
	c-0.9-10.2-2-21.7-2.5-25.5s-1.2-18-1.5-31.5l-0.6-24.5l1-19c2.6-48.3,7.9-91.4,16.2-132.5c55.7-273.8,252-499.5,516.2-593.4
	C608.7,19.9,687.4,5,776.3,0.9L799-0.2l23.7,1.1c111.3,5,206.6,26.7,301.7,68.9c179.5,79.5,326.2,226.2,405.8,405.8
	c42.1,95,63.8,190,68.9,301.2l1.1,23.2l-1.1,23.2c-5,111-26.8,206.4-68.6,300.7c-109.7,247.4-340.7,424.7-606.5,465.4
	C868.3,1597.9,814.4,1601.3,768.5,1599L768.5,1599z M850.5,1565c78.3-5.1,156.4-22.5,229.5-51.2c23.9-9.4,39.4-16.4,66-29.8
	c107.1-54.1,198-131.1,271.5-229.9c38.4-51.6,72.2-112.8,96.3-174c24.8-63,40.9-128.6,48.3-195.9c3.3-30.5,4.3-49.6,4.3-84.1
	c0-73.9-8.9-138.9-28.3-208.1c-13.6-48.1-30.4-91.1-54-137.9c-14.3-28.3-27-50.2-43.4-75c-44.5-67.2-100.9-128.9-163.3-178.8
	C1218,153,1150.5,114,1080,86.3c-73.4-28.8-148.3-45.6-230-51.3c-21.6-1.5-79-1.5-100,0C680.1,40,618,52.3,555.3,73.4
	c-37,12.5-64.7,24.2-101.3,42.7c-71.6,36.2-132.6,80-189.9,136.3c-31.8,31.3-52.6,55-78.4,89.4C145,396.1,111.1,456.7,86.3,520
	c-28.8,73.4-45.4,147.7-51.4,230c-1.5,21.3-1.5,78.7,0,100c5,69.9,17.3,132,38.5,194.7c12.5,37,24.2,64.7,42.7,101.3
	c36,71.2,80.8,133.5,137.4,190.9c31,31.4,55.1,52.6,87.5,77c53.5,40.2,116.3,75.2,179.1,99.9c81.6,32.1,164.5,49.1,257,52.7
	C789.9,1566.9,833.6,1566.1,850.5,1565L850.5,1565z M650,1286.9c-22.4-2.4-41.1-11.9-53.7-27.1c-5.5-6.7-11.7-19.2-14-28.4l-1.7-7
	l0.1-28l1.6-7.1c3.2-14.1,8.1-23.4,17.9-33.3c11.1-11.3,21.6-17.7,38.9-23.4c18.9-6.3,39-8.7,72.1-8.7h20.7l1.7-1.7l1.7-1.7
	l-0.7-9.6c-0.8-11.4-2.7-19.7-6-26.7l-2.5-5.1l-5-4.7l-5-4.7l-7.2-3.4c-4-1.9-10.8-4.2-15.2-5.1l-8-1.6l-24,1.1l-7.5,2.1
	c-11,3.1-22.3,9.1-32.4,17c-4.9,3.9-9.7,7-10.6,7c-2.1,0-6.1-4.3-14.4-15.4l-6.6-8.9v-5l5.8-5.4c18.7-17.5,47-28.9,76.8-30.9l10-0.7
	l9.9,1.2c45.7,5.5,71,29.6,76.6,73.1l1,7.4l0.1,49.5c0.1,52.1,1.1,88,3.1,111.8l1.2,14.3l-1.7,1.7l-1.7,1.7h-29.9l-2.9-3l-1.2-10.5
	c-0.7-5.8-1.6-10.9-2-11.4l-0.8-0.9l-18.7,18.1l-9.4,4.6C689.2,1286.6,671.6,1289.3,650,1286.9L650,1286.9z M687.1,1274.2
	c4.2-1.1,11-3.7,15-5.7l7.4-3.7l16.2-16.2l4.3-7.3c2.4-4,5.4-8,6.6-8.8l2.3-1.5l2.1,0.7c1.1,0.4,2.7,1.6,3.4,2.8l1.4,2.2l0.6,14
	c0.3,7.7,1,15.3,1.4,17l0.8,3h13.9l-0.1-3.5c-0.1-1.9-0.7-12.9-1.3-24.5s-1.6-50-2-85.5l-0.8-64.5l-2.1-8.3
	c-1.2-4.6-3.8-11.8-5.8-16l-3.7-7.7l-7.1-7.2l-7.1-7.2l-9.4-4.6c-5.2-2.5-13.2-5.5-17.9-6.6l-8.5-2.1l-26-1.2l-9.2,1.6
	c-12.5,2.2-27.1,6.9-37.3,12.2c-8.7,4.5-19.7,12.4-20.6,14.9l-0.5,1.4l4.2,5.6c2.3,3.1,4.4,5.6,4.7,5.6s4.8-2.9,10.1-6.4
	c10.7-7.1,20.4-11.6,32-14.8l7.6-2.1h31l7.6,2.1c4.2,1.2,10.8,3.7,14.7,5.6l7,3.5l6.1,5.6c6.9,6.4,11,12.9,14.2,23l2.2,7l0.5,16.8
	l0.5,16.8l-1.8,2l-1.8,2l-16.6,0c-18.8,0-45.7,1.5-57.6,3.1c-26.8,3.7-46.6,12.7-60.6,27.6l-6.6,7l-2.6,5.5
	c-4.1,8.6-5.8,16.2-6.3,28.7l-0.5,11.5l1.6,8.3l1.6,8.3l3.7,7.7l3.7,7.7l15.2,15.2l7,3.5c8.5,4.3,11.7,5.3,22,7.2l8,1.5l26-0.8
	L687.1,1274.2L687.1,1274.2z M650,1258.5c-3.6-0.8-9.9-3.1-14-5.2l-7.5-3.7l-6.1-6.1l-6.1-6.1l-2.8-5.5c-3.9-7.7-5.5-14.2-5.5-23
	c0-14.7,4.5-25.5,15.1-36.1l6.6-6.6l9.2-4.6c19.8-9.9,42.8-13.6,84.8-13.6l17.2,0l4,4v30.8l-2,11.4c-1.1,6.3-3,14.4-4.4,18.1
	c-8,22.1-26.3,38.5-50.1,44.8l-7.1,1.9l-25,0.9L650,1258.5z M687,1246.6c14.3-4,27.3-13.2,34.8-24.8c7.7-11.9,11.3-25.6,12.6-48.1
	l0.6-10.8l-1.1-2.1l-1.1-2.1l-23.6,0.6c-33.5,0.8-47.2,3.2-63.9,11.3l-9.2,4.4l-11.1,10.9l-5.4,11.6v22l6.6,13.4l4.4,3.8
	c5.5,4.8,12.7,8.8,19.7,10.8l5.4,1.5l26-0.9L687,1246.6z M1200.7,1286.9c-10.9-1.1-25.4-5.2-35.4-9.9c-40.1-18.8-65-58-69.3-108.9
	l-1.1-13.4l1.1-13.8c0.6-7.6,1.6-15.3,2.1-17.1c0.5-1.8,0.9-4.9,0.9-6.8c0-8.4,9.8-31.8,19-45.6c5-7.4,21.4-25.4,23.1-25.4
	c0.4,0,3.9-2.1,7.6-4.7c15.7-10.8,34.7-17.5,55.5-19.5l11.7-1.1l11.3,1.2c30.2,3.1,51.2,13.5,73.4,36.2
	c10.9,11.2,14.2,15.6,19.7,26.3c6.5,12.7,9.2,20.4,12.8,36l2.1,9l-0.1,20.5c-0.2,21.5-0.9,29.3-4,42.5
	c-5.6,23.7-16.2,43.4-31.8,59.7C1273.1,1279.4,1239.9,1291.1,1200.7,1286.9L1200.7,1286.9z M1233.5,1275.6
	c33.5-5.4,61.2-26.1,76.9-57.4c5-10,10.1-25.6,12.2-37.7l1.7-10v-32l-1.7-10c-3.2-18.2-10.6-37.3-19.8-50.9
	c-5.4-7.9-16.6-19.6-24.6-25.6c-17.1-12.8-39.7-20-62.6-20c-56.9,0-99.4,39.8-107.9,101c-6.1,43.8,6.7,87.5,33.3,114.1
	c19.6,19.5,44.3,29.5,73.6,29.8C1220,1277,1228.6,1276.4,1233.5,1275.6L1233.5,1275.6z M1200.4,1259c-15-2.7-31.2-10.4-43.1-20.6
	c-15.5-13.3-27.5-35.4-32.4-59.8l-1.4-7v-34l1.4-7c4.6-23.3,14.2-42,29.1-56.5l7.7-7.5l8.1-4.8c9.4-5.6,21.6-10.1,32.2-11.7l7.5-1.2
	l10.5,0.5l10.5,0.5l8,2.1c16.2,4.2,32.4,14.5,43.8,27.8c11.4,13.2,18.6,28.5,22.8,48.4l2.2,10.3v32l-2.2,10.5
	c-4.2,19.9-11.3,35-22.8,48.3c-11.4,13.2-27.5,23.5-43.7,27.8l-8,2.1l-12.5,0.3C1211.1,1259.8,1203.2,1259.5,1200.4,1259
	L1200.4,1259z M1239.5,1245.6c35.5-12,57.5-46.8,57.5-91.1l0-9l-2.6-11.5c-3.1-13.9-5.5-21.3-9.6-29.4
	c-13.7-27.4-39.5-43.6-69.3-43.6c-22.3,0-41.1,8.2-56.2,24.4c-7.8,8.4-12.2,15.3-16.4,25.8c-1.6,4-3.6,8.7-4.4,10.4
	c-0.8,1.7-2.2,7.3-3.1,12.5l-1.6,9.4l1,31l2.5,9.7c8.8,33.6,30.7,56.2,61.2,63.4l6,1.4l27-0.7L1239.5,1245.6z M428.3,1281.4
	c-1.2-0.3-2.7-1.1-3.3-1.8c-0.6-0.7-16.8-48.3-36-105.8s-35.6-105.6-36.4-106.9c-0.8-1.3-11.4-32.5-23.5-69.4
	c-32.1-97.5-31.7-96.1-28.9-98.3c1.4-1.1,15.2-2.3,30.1-2.6l9.8-0.2l1.4,2c1.7,2.3,32.4,94.6,32.4,97.3c0,1,15.7,49.5,34.9,107.8
	l34.9,105.9l3.1,0.6l47.6-143.2c26.2-78.7,47.8-144.6,48-146.3c0.2-1.7,1.9-7.4,3.7-12.6l3.3-9.5l5-2.6l35.4,0.6l1.7,1.7l1.7,1.7
	l-0.1,2.8c-0.1,3.2-10.2,33.2-13.7,40.8c-1.3,2.8-27.6,79.2-58.5,170c-30.9,90.8-56.8,165.7-57.6,166.5l-1.4,1.5l-15.7,0.2
	C437.6,1281.8,429.5,1281.6,428.3,1281.4L428.3,1281.4z M455.8,1269.8c1.7-2,123.3-359.8,122.7-360.8c-0.7-1.1-17.4-1.2-19.1-0.2
	c-0.6,0.4-25.3,73.4-54.9,162.2c-29.6,88.8-54.5,162.3-55.3,163.3l-1.6,1.8l-4.9-0.6l-1.8-2.5c-1-1.4-25.5-74.7-54.5-163
	s-53.2-160.8-53.8-161.2c-1.5-1-19.4-1-20,0.1c-0.3,0.5,3.5,13,8.5,27.8c5,14.8,32,95.5,60,179.3c28,83.8,51.4,153,52,153.8l1.1,1.3
	h20.5L455.8,1269.8z M840.5,1281.4c-1.1-0.3-2.6-1.2-3.2-2.1l-1.2-1.6l-0.1-94.1c0-51.7-0.5-102.4-1-112.6s-1.2-23.4-1.5-29.5
	l-0.5-11l3-4h33l2,1.8l2,1.8l0.6,11.1c0.4,6.1,0.9,11.4,1.2,11.7c0.3,0.3,3.5-2.7,7-6.6c11.5-12.6,23.3-20,37.8-23.9l6.2-1.6l22-0.2
	l5.2,1.3c2.8,0.7,5.9,2.2,6.9,3.2l1.7,1.9l-0.6,7.3c-0.3,4-1.2,11.9-1.8,17.7l-1.2,10.4l-2,2l-2,2l-4.1-0.9
	c-2.3-0.5-8.4-0.8-13.6-0.7l-9.5,0.1l-7,2.5c-3.8,1.4-8.7,3.2-10.8,3.9c-13.1,5-25.8,22.6-30.7,42.4c-1.1,4.4-2.5,13.2-3,19.5
	l-1,11.4l0,67.1l0,67.1l-1.7,1.4l-1.7,1.4l-14.1,0.2C848.8,1281.8,841.6,1281.6,840.5,1281.4L840.5,1281.4z M862.8,1269.8l1.2-1.2
	l0-138.1l1.5-9.4c4.8-29.8,19.4-51.3,41.9-62.1c7.9-3.8,17.4-6,29.4-6.8l9.5-0.7l0.7-3c0.4-1.7,0.9-5.6,1.2-8.8l0.5-5.8l-2.5-0.9
	c-7.2-2.7-24.8,0-36.4,5.7l-7.5,3.7l-18.2,18.2l-5.3,8.7c-2.9,4.8-6.1,9.5-7.1,10.4l-1.8,1.7l-2.3-0.6c-1.3-0.3-2.9-1.6-3.7-2.9
	l-1.4-2.3l-0.4-17.7l-0.4-17.7l-1.3-1.1l-1.3-1.1l-6.8,0.3l-6.8,0.3l0.2,13.5c0.1,7.4,0.5,59.2,0.8,115s0.8,102.1,1.1,102.8l0.4,1.2
	h13.7L862.8,1269.8L862.8,1269.8z M1002,1280.8l-2.5-1.3l-0.8-92.5c-0.4-50.9-0.9-107-1-124.7l-0.2-32.2l1.8-1.8l1.8-1.8h32.9l4,4
	l-0.6,123.8l-0.6,123.8l-1.3,1.7l-1.3,1.7l-29.7,0.6L1002,1280.8z M1025.5,1154.5v-116l-6.8-0.3l-6.8-0.3l-2.8,2.3v228.4l2.5,2.5
	l14-0.6V1154.5z M1006.1,961.4l-5.3-2.6l-3.3-4.6c-4.1-5.6-5.7-10.8-5.7-18.1c0-7.7,1.7-13.2,5.5-18.2c3.9-5.2,8.6-8.4,14.1-9.9
	l4.1-1.1l4.7,0.6c13.2,1.6,22.3,11.7,23.5,26.2l0.5,6.2l-3.5,11.3l-3.9,4.4c-2.1,2.4-5.8,5.3-8.2,6.5l-4.3,2.1h-13L1006.1,961.4z
	 M1025.1,952c1-0.5,3.1-2.6,4.6-4.6l2.7-3.6l0.8-11.6l-1.1-3.4c-0.6-1.9-2.7-4.9-4.6-6.8l-3.4-3.3l-10.6-0.8l-3.4,2.3
	c-1.9,1.3-4.4,3.9-5.5,5.8l-2,3.5l0,6l0,6l2.4,4.2l2.4,4.2l8.2,4.1l3.9-0.6C1021.5,953.2,1024.1,952.5,1025.1,952L1025.1,952z
	 M444,852.6c0-3.9,50.2-77.7,51.8-76.2c0.2,0.2-3.6,5.7-8.5,12.2c-11.7,15.5-26.9,37.9-36,52.8C447.3,848.1,444,853.1,444,852.6
	L444,852.6z M785,834.5c-15.2-2.6-30.1-8.8-43.4-17.7c-8.8-5.9-21.3-18.9-27.9-28.9c-14.7-22.2-22.1-46.9-23.4-78.4l-0.6-14
	l1.2-10.5c4-34.8,16-61.9,36.5-82.6c16.9-17,34.9-26.8,57.2-31l8.9-1.7l30,1l8.5,2.2c38.2,9.9,66.2,40.8,76.7,85l2.5,10.5l0.5,21.8
	l0.5,21.8l-1.8,2l-1.8,2H729.9l-0.6,1.5c-0.8,2.1,2.3,18.1,5.1,26.4c8.8,26,28.7,45.6,52.5,51.7l6.5,1.7l23,0l6.9-1.7
	c20.3-5,38.4-17.7,49.9-35.2l3.3-5h6.3l22.2,20.7v5.4l-5.7,8.4c-16.3,24.3-39.9,38.9-71.8,44.5l-9,1.6l-13-0.1
	C798.4,835.9,789.1,835.2,785,834.5L785,834.5z M825,823.9c16.6-2.3,34.6-9.7,46.9-19.4l7.4-5.8l12.8-16.2v-4.4l-5.2-4.5
	c-2.9-2.5-5.7-4.3-6.2-4c-0.6,0.3-3.2,3.1-5.8,6.4c-2.6,3.3-7.8,8.4-11.5,11.5l-6.7,5.6l-11,5.4c-6,3-13.9,6.2-17.5,7.2l-6.5,1.7
	h-33l-7.5-2.3c-10.4-3.3-17.5-7.1-26.4-14.1c-12.9-10.2-23.6-25.4-29.6-41.8c-3.5-9.7-7-27.2-7-35.2v-5.9l4.4-3.1H901l0.6-2.6
	c1.6-6.5-1.5-36.5-5.2-49.3c-8.5-29.6-26.2-51.8-50.7-63.6c-10.9-5.3-18.3-7.3-31.4-8.5l-9.8-0.9l-10,1c-12.3,1.2-19.6,3.2-30.1,8
	c-30.8,14.1-51.9,42.5-60.7,81.9l-2.1,9.6l0,22.5l0,22.5l2.2,10c4.5,20.5,11.9,37.6,22.4,51.5l6.2,8.2l7.9,6.7
	C763.3,821.6,790.6,828.7,825,823.9L825,823.9z M719.7,686.2c-2.2-2.4-2.1-6.6,0.4-16.5c5.7-22.6,17.8-42,34.2-55.2
	c9.6-7.7,17.7-11.9,28.2-14.5l8-2.1l23-0.1l7,1.7c29.9,7.4,54.2,32.1,61.5,62.8l2,8.2l0,14.2l-3.7,3.3h-159L719.7,686.2L719.7,686.2
	z M872.8,673.3c0.5-4.9-3.4-17.8-8.1-26.8l-4.2-8l-18-18.2l-19-9.2l-16.8-3.3l-8.3,0.7c-16.4,1.3-27.2,5.6-38.5,15.4
	c-8,6.9-14.1,14.2-19.7,23.9c-4.7,8.1-10.7,25.3-9.8,27.7l0.6,1.6l141.6-0.5L872.8,673.3z M1047.5,834.4
	c-45.8-8.3-79.9-44.4-90.5-95.9c-4-19.2-4.1-50.4-0.4-68.8c10.5-52,46.2-90.1,91.9-98.2c9.4-1.7,28.3-1.8,37.5-0.4
	c32.3,5.2,59.3,25.3,74.8,55.8c10.9,21.3,15.2,42,15.2,72.7l0,12.1l-2.8,3.9l-179.7,1l-0.3,3.3c-0.4,4.7,2.5,18.5,5.8,27
	c6.3,16.3,17.8,30.9,31.6,40.1c8.8,5.9,16.8,8.7,29.2,10.1l9.2,1.1l8.8-1.1c24-2.9,45.5-16,58.2-35.5l4.3-6.5h5.7l10.3,9.6
	c11.8,11.1,12.8,12.1,12.8,14.5c0,2.8-10,16.8-17.9,25.2l-7.4,7.8l-8.2,5.4c-12.5,8.3-28.3,14.3-45.4,17l-8.5,1.4l-13-0.1
	C1061.4,835.9,1051.9,835.2,1047.5,834.4L1047.5,834.4z M1088,823.9c21.1-2.9,39.2-11.2,52.8-24.3c6.2-5.9,15.2-17.4,15.2-19.4
	c0-0.5-2.5-3.4-5.6-6.3l-5.6-5.3l-4.1,4.9c-13.8,16.6-30.6,27.2-51.4,32.4l-7.8,2l-24.4,0l-6.8-1.4c-15-3.2-25.5-8.9-37.5-20.4
	l-7.9-7.6l-5.4-8.2c-10-15.1-15.1-29.6-17.5-50.4l-1.2-10.3l4.3-4.3l179.4-1l-0.2-33l-2.6-11.3c-9.5-41.5-37-70.6-73.5-77.9
	l-7.7-1.5l-25,0l-8,1.7c-10.3,2.2-19,5.6-28.9,11.4l-7.9,4.6l-8.3,7.9c-4.6,4.3-10.6,10.9-13.3,14.5c-10.5,13.9-19.1,34.7-22.6,54.6
	l-1.8,10v35l1.7,10c4.7,26.9,14.9,48.5,30.6,64.8C1020.3,819.7,1050.2,829.1,1088,823.9L1088,823.9z M983,685.8l-2.1-2.2l0.6-4.5
	c2-13.6,8.9-31.2,17.4-44c11.8-17.8,31.2-31.8,49.5-35.7l7.2-1.5l22,0l7.5,2c23.7,6.2,42.8,22,54.3,44.9c3.9,7.6,7.6,21.4,8.3,30.8
	l0.6,8.2l-4.3,4.3H985.1L983,685.8L983,685.8z M1136.6,675.7c0.8-2-2.1-14.7-4.9-21.6c-4-9.9-8.7-16.9-16.7-25l-7.5-7.6l-6.5-3.8
	c-3.6-2.1-10.1-5-14.5-6.4l-8-2.6l-24-0.1l-6.2,1.7c-19.4,5.2-36.1,20.2-47.3,42.5c-4,7.9-8,20.7-7.3,22.9l0.4,1.2h141.9
	L1136.6,675.7L1136.6,675.7z M556.8,829.9l-1.7-1.3l-0.5-90c-0.3-49.5-1-102.2-1.6-117s-0.8-30.7-0.4-35.3l0.7-8.3l4-2.2l30.5-1.1
	l4.3,4.3l0,4.8c0,2.6,0.3,7.8,0.7,11.6l0.6,6.8l8.3-8.5c13.1-13.4,23.8-19.8,38.8-23.1l7.6-1.7l11.2,0.5c6.2,0.3,12.9,1,15,1.7
	l3.8,1.2l2.2,4.8l-1.2,11.6c-1,10.3-3.1,21.1-4.5,23.3c-0.3,0.4-6,0.9-12.8,0.9l-12.3,0.1l-6.9,1.6c-3.8,0.9-10.1,3.3-14,5.3
	l-7.1,3.7l-12.2,12.3l-4.1,7.8c-2.2,4.3-4.8,10.5-5.8,13.8s-2.3,7.5-3.1,9.3c-0.8,1.8-1.8,8.6-2.4,15l-1,11.7l0,67.2l0,67.2
	l-1.8,0.9c-1,0.5-8.7,1.2-17.2,1.6l-15.5,0.7L556.8,829.9L556.8,829.9z M583,744.5l0.5-74l2.8-10.3c5-18.4,11.5-30,22.5-40.5
	c8.1-7.7,14.8-11.7,25.6-15.3l8-2.7l11.3-0.5c6.2-0.3,11.5-0.8,11.7-1.2c0.2-0.4,0.9-4.4,1.5-9.1l1.1-8.4l-0.9-0.9
	c-0.5-0.5-5.2-0.9-10.3-0.9l-9.4,0.1l-6.2,1.6c-17.7,4.6-31.4,16.2-44.6,37.7l-5.1,8.3l-6.3,0.6l-1.7-2.6l-1.7-2.6l-0.4-16.2
	c-0.2-8.9-0.6-17.2-0.9-18.5l-0.5-2.3l-7.7,0.3l-7.7,0.3l0.2,13c0.1,7.2,0.5,58.7,0.8,114.5s0.8,102.1,1.1,102.8l0.4,1.3l15.5-0.6
	L583,744.5z M301.7,828.8l-1.7-1.2l-0.5-55c-0.3-30.2-0.7-114.3-1-186.8L298,453.8l1-3.9l1-3.9h206l1.9,1l1.9,1v36.7l-3.3,2.7
	l-165.2,1l0.1,59.8l0.1,59.8l2.4,2.4l152,0.7l2.7,4.3l0.7,16.5l0.7,16.5l-4,4.9l-8.6-0.3c-14.6-0.5-98.8-0.3-122.7,0.3l-22.6,0.6
	l-0.7,85.6l-0.7,85.6l-3,4.6h-34.6L301.7,828.8L301.7,828.8z M330,731.9l0.5-86.6l1.4-1.7l1.4-1.7h152.4l2.4-2.4V623l-1.3-0.5
	c-0.7-0.3-35.3-0.6-76.9-0.7l-75.6-0.2l-4.2-3.8V481.4l2.8-3.9l166.7-1v-19h-189L310.2,637c-0.1,98.7,0,180.1,0.2,180.8l0.5,1.3
	l18.5-0.6L330,731.9z M375.4,792.5c4-8.4,48.6-72.8,54.3-78.4l1.5-1.5l-0.9,1.5c-0.5,0.8-6.2,8.7-12.8,17.5
	c-6.6,8.8-18.5,26-26.5,38.1c-8,12.2-15.2,23-15.9,24l-1.3,1.9L375.4,792.5z M889,498.4l-1-2.6l1.3-2.6c0.7-1.5,2.4-3.2,3.8-3.9
	l2.6-1.2l7.3,2l2.7,3.5c1.5,1.9,2.4,3.7,2.1,4s-1.5-0.7-2.7-2.3c-4.3-5.5-9.6-6.8-13.1-3.2l-2.1,2.1l0.6,3.4
	C891.2,501.6,890.4,502.1,889,498.4L889,498.4z M995,479.7c0-0.6,3.3-2.2,22.9-10.8c14.9-6.5,35.1-17.5,35.1-19.1v-1l-6.2,0.6
	c-3.4,0.3-12.6,1.1-20.2,1.7s-17.8,1.5-22.5,2s-11.7,0.9-15.7,1l-7.2,0l-4.9-4.5l-3.7-10c-2-5.5-4-10.4-4.4-10.8
	c-0.4-0.4-2.8-0.2-5.3,0.4l-4.5,1.2l-6.3-2.6l-0.6-2.3c-0.3-1.3-0.3-3.2,0-4.3c0.7-2.2,12.3-10.5,20.3-14.6
	c2.9-1.5,9.9-5.4,15.5-8.8l10.2-6.1l8-0.8l6.5,4.1v2.8c0,3.7-1.2,5.1-8.8,10.1c-3.4,2.3-6.2,4.6-6.2,5.2c0,1.3,10.8,21.1,12.4,22.7
	l1.3,1.3l11.9-1.4c6.6-0.8,22.2-3.3,34.9-5.6l22.9-4.1l25-8.1l6.6-5.3c3.6-2.9,13.3-11.2,21.4-18.5c8.1-7.3,15-13,15.3-12.7
	c0.7,0.7-13.8,14.1-32,29.6l-9.8,8.3l-12.7,3.9c-12.4,3.8-17.9,5-47.1,10.3c-16.5,3-37.1,5.7-38.2,5c-0.4-0.3-2.9-4.4-5.5-9.2
	c-2.6-4.8-5.8-10.6-7.1-12.9l-2.4-4.2l6.3-4.2c11.3-7.6,12.5-9.3,8.8-12.9l-2-2h-8.6l-7,4.3c-3.8,2.4-11,6.5-16,9.2
	c-10.5,5.7-19.2,11.4-21.9,14.4l-1.9,2.1l3.3,5.1l3.7,0c2,0,5-0.7,6.6-1.5s3.2-1.2,3.6-0.7s1.9,4.4,3.4,8.8s3.7,10,4.9,12.5l2.2,4.5
	l7,1.8l16.5-1.6c18.8-1.8,52.2-4.6,56-4.6h2.5l-3.5,2.3c-9.5,6.4-26.5,15.3-42.1,22.2C997.4,479.7,995,480.6,995,479.7L995,479.7z
	 M1060,470.6c0-0.2,4.6-3,10.2-6.2s14.8-8.5,20.2-12l10-6.2l5,0.9c2.8,0.5,12.2,1,21,1l16,0.1l20.4-4.3l24.2-10.2l1.5-2.3l1.5-2.3
	l-1.6-3.1c-2-3.9-8.6-8.7-13.8-10.1c-2.2-0.6-9.6-1.6-16.4-2.2l-12.5-1.2l6.8-6c3.7-3.3,11.4-10.4,17.1-15.9s10.3-9.4,10.3-8.9
	s-6.3,7.1-14,14.7c-7.7,7.5-13.8,14-13.5,14.5c0.3,0.5,4.2,1.1,8.6,1.4c4.5,0.3,10.9,1.4,14.2,2.3l6.1,1.7l9.6,9.3v3
	c0,1.6-0.6,3.7-1.2,4.7c-2,2.6-23.9,11.5-34,13.8l-9.2,2.1l-12,0.5c-6.6,0.3-16.9,0-23-0.6l-11-1.1l-8.5,5.3
	c-10.9,6.8-29.9,17.6-31.1,17.6C1060.4,471,1060,470.8,1060,470.6L1060,470.6z M1065,455.7c1.9-1.3,4.6-2.7,6-3.1l2.5-0.7l-5,3
	C1062.6,458.5,1060,459.1,1065,455.7L1065,455.7z M986.3,443.3c-0.9-0.6-8.3-18.2-8.3-19.8c0-0.6,9.3-4.5,9.7-4.1
	c1.6,1.6,12.1,22.3,11.6,22.8C998,443.2,987.6,444.1,986.3,443.3L986.3,443.3z M1118.9,436.4c2.7-3.4,2.6-5-0.5-7.8
	c-1.4-1.3-2.2-2.6-1.7-2.9c1.1-0.7,14.9-2.4,25.3-3.1c9-0.6,26.2,0.8,31.8,2.6l3.3,1.1l-0.4,1.2c-0.7,2-15.5,7.8-25.1,9.7l-9.2,1.9
	l-25.6,0L1118.9,436.4L1118.9,436.4z M1136,406.2c4.1-3.7,14-12.8,22-20.2c8-7.4,16.1-14.8,17.9-16.5l3.4-3.1l-4.1,5
	c-9.5,11.6-42.1,41.5-45,41.5l-1.7,0L1136,406.2L1136,406.2z"/>
<path class="st6" d="M773,1599.1c-8.5-0.3-14.4-0.9-13-1.1s-3.4-0.9-10.5-1.2c-108.6-5.9-225.2-38.8-323.5-91.2
	c-229.5-122.3-385.4-347.7-417.9-604c-2.4-18.7-5-48.2-5.2-57.5l-0.1-6.5l-1.4,5l-0.6-21.2c-0.3-11.7-0.3-30.8,0-42.5l0.6-21.2
	l1.4,5l0.1-6.5c0.2-9.3,2.8-38.8,5.2-57.5C20,604.3,50,509.6,94.2,426.5C207.4,213.9,409,63.7,643.9,17C678,10.2,719.7,4.8,750,3.3
	l13.5-0.7l-3-0.6c-1.7-0.3,6-0.9,17-1.2c21.8-0.6,66.8,0.2,62,1.2l-3,0.6L850,3.3c30.3,1.5,72,6.9,106.1,13.7
	c154.7,30.8,296.4,106.6,408.3,218.5c125.4,125.4,205.3,288.1,227.5,463c2.4,18.7,5,48.2,5.2,57.5l0.1,6.5l1.4-5l0.6,21.2
	c0.3,11.7,0.3,30.8,0,42.5l-0.6,21.2l-1.4-5l-0.1,6.5c-0.1,3.6-0.8,14.4-1.6,24c-10.7,123-47.6,237.2-110.7,342.5
	c-101.2,168.9-263.7,296.1-450.8,353c-59.2,18-127.6,30.3-183.9,33.2l-13.5,0.7l6,1.4l-9.1,0.1c-5,0.1-17.1,0.3-27,0.5
	S781.5,1599.4,773,1599.1L773,1599.1z M844.5,1566c102.9-6.4,197.9-31.1,289-75c104.9-50.6,198.3-126,271.6-219.6
	c95.6-122,151.7-270.9,160.9-427c1.3-21.8,1.3-67.2,0-89c-11-186.5-88.1-360.1-218.9-492.9c-31.2-31.6-56.4-53.8-89.5-78.4
	c-111.2-82.8-244-134.3-381.1-147.7c-50.1-4.9-104-4.9-153,0c-118.8,11.8-232.2,51-334,115.2c-82.1,51.8-156.7,122.7-214.7,203.7
	C90.9,473,42.8,609.7,34,756c-1.3,21.2-1.3,66.8,0,88c11.3,187.4,87.3,359.1,218,492.4c44.5,45.4,88.2,80.9,139.1,112.9
	c108.4,68.4,232.4,108.3,361.4,116.6C771.4,1567.1,825.9,1567.1,844.5,1566L844.5,1566z M648.5,1286.3c-1.7-0.2-6.8-1.3-11.5-2.4
	l-8.5-2l-8-4c-18.1-8.9-31.6-25.2-37-44.5l-1.7-6l-1.1-27l1.7-8.5c2.2-11,4.7-17.4,9.4-24.6c13.2-20.2,37.1-34,68.6-39.3
	c11.4-1.9,39.7-3.9,61.5-4.3l12.5-0.2l0.3-9.1l0.3-9.1l-1.5-7.4c-0.8-4-2.9-10.1-4.6-13.5l-3-6.2l-5.1-4.6
	c-5.8-5.2-14.4-9.6-23.9-12.1l-6.5-1.7l-27,0l-8,2.1c-11.1,3-24.5,9.9-34.2,17.6c-7.9,6.3-10.5,7.4-12.8,5.8
	c-2.1-1.5-17.2-21.8-17.9-24.1l-0.7-2.3l4.4-4.2c16.6-15.9,39.9-27,65.5-31.2l9.8-1.6l14.5,0.5l14.5,0.5l9.5,2.5
	c17.5,4.6,30.5,12,41.1,23.5l6.1,6.7l4.3,9c4.6,9.7,6.8,16.9,8.6,28l1.1,7l1.6,149l3.1,28l-2.9,4.5h-28.6l-1.8-1.3l-1.8-1.3
	l-1.4-10.9c-0.8-6-1.4-11.3-1.4-11.7c-0.1-1.9-3.1-0.4-6,3c-5.5,6.4-16.2,15.1-23,18.6c-8.2,4.3-14.3,6.3-25,8.1l-8.5,1.5l-11-0.1
	C656.4,1286.8,650.1,1286.5,648.5,1286.3L648.5,1286.3z M688.5,1275c4.4-1.2,11.2-3.8,15-5.8l7-3.7l15.1-15l5.3-8.7
	c5.5-9,7.5-10.7,11-8.8c2.6,1.4,2.8,2.7,3.5,19c0.3,7.4,0.9,14.8,1.4,16.5l0.8,3h15.9l-0.1-4c0-2.2-0.6-12.6-1.2-23l-1.2-19l0-53
	c0-29.1-0.4-59.3-1-67l-1-14l-2-8c-1.1-4.4-3.8-11.6-6-16.1l-4-8.1l-7.8-7.4l-7.8-7.4l-8.5-4.2c-4.7-2.3-12.3-5.1-17-6.3l-8.5-2.1
	l-28-1.1l-9.5,1.7c-19.3,3.3-39,11.7-52.4,22.2l-5.6,4.4v1.8c0,2.3,8,13.2,9.7,13.2c0.7,0,4.8-2.4,9.1-5.4
	c14-9.8,27.8-15.3,44.1-17.7l8.4-1.2l9.4,0.7c16.1,1.1,28,4.9,39.1,12.5c7.5,5.1,11.4,9.7,15.8,18.8l3.5,7.2l2.9,15.3v25.7l-1.6,1.6
	l-1.6,1.6h-17.7c-21.1,0-46,1.5-59.2,3.6c-27,4.2-47.9,14.7-60.6,30.2c-6.2,7.6-9.2,13.8-11.4,24l-1.9,8.7l0,10.3l0,10.3l1.6,7.7
	l1.6,7.7l7.4,14.9l15.1,15.3l8.5,4c7.2,3.5,13.7,5.4,26,7.6c1.4,0.3,8.8,0.3,16.5,0.1l14-0.3L688.5,1275L688.5,1275z M651.1,1257.5
	c-18.7-4.3-32.8-15.6-39.2-31.6l-2.2-5.4l-0.5-8.5l-0.5-8.5l1.7-6.5c2.4-9.3,5.1-14.3,11.3-21c6.7-7.2,15.8-13.1,27.2-17.5
	c16.2-6.2,30.9-8.3,65.3-9.2l24.7-0.6l5.1,3.4v28.2l-1.5,10.6c-2.5,17-7.1,29.1-15.3,40.1c-8.4,11.2-23.8,21.2-38.8,25.1l-7.8,2
	l-23,0.9L651.1,1257.5z M677.7,1248.9c21.4-2.9,38.6-14.4,47.7-31.9c6.1-11.7,9.6-28.7,9.6-47v-10l-2.2-1.2l-2.2-1.2l-20.5,0.7
	c-40.3,1.3-59.5,5.9-75.6,17.8l-6,4.4l-3.7,5.4l-3.7,5.4l-1.5,6c-5.1,19.9,3.1,38.1,21.1,47C651.1,1249.5,662.7,1251,677.7,1248.9
	L677.7,1248.9z M1195,1285.6c-16.3-2.9-30.3-8.4-43.6-17.1l-8.9-5.8l-8.6-8.6c-17.6-17.7-29.4-40.6-35.1-68l-2-9.6l-0.5-17l-0.5-17
	l1.7-10.5c0.9-5.8,2-13.4,2.5-17c2.3-18.3,18.9-48.5,34.1-62.4c5.9-5.4,21.1-15.2,30.4-19.6c8.9-4.2,20.7-7.9,31.5-9.6l9.5-1.6l29,1
	l8.5,2.1c23.5,5.8,42.6,17.1,57.9,34.5c3,3.3,6.1,6.4,7,6.9c5.8,2.8,19.3,31.3,24.3,51.4l2.2,8.8l-0.1,46l-1.8,10
	c-9.2,52.1-42.5,89.9-89.6,101.6l-8.5,2.1l-16,0.4l-16,0.4L1195,1285.6L1195,1285.6z M1232.3,1276.9c22.6-3.3,42.1-13.2,58.2-29.4
	c17.4-17.4,28.1-39,33.1-66.6l1.7-9.5v-34l-1.7-9.5c-7.3-40-28.3-70.2-60.2-86.3c-28.4-14.3-68.5-14.3-97,0
	c-17.6,8.8-34.2,25.1-45,44.3c-21.8,38.4-21.9,98.5-0.3,136.5c6.5,11.4,9,14.8,17.4,23.6c16.2,16.8,33.7,26.3,55.8,30.3
	C1204.2,1278.1,1222.5,1278.4,1232.3,1276.9L1232.3,1276.9z M1199.5,1257.5c-18-3.4-34.2-12.2-47.1-25.7c-12.8-13.4-21.3-30.4-26-52
	l-1.8-8.3v-34l1.8-8.3c5-22.9,14.6-41.2,28.8-54.8c8.1-7.7,14-11.7,24.2-16.4c10.6-4.9,18.9-6.9,31.2-7.7l10-0.6l9.3,1.6
	c38.9,6.8,67.1,36.8,74.8,79.8l1.7,9.3v28l-1.7,9.3c-1.8,9.9-6.2,23.6-10.3,31.7C1276.3,1244.9,1237.5,1264.6,1199.5,1257.5
	L1199.5,1257.5z M1236.8,1247c14.4-4.1,25.2-10.9,36.7-23.2l7-7.5l4.3-8.1c7.5-14.2,11.4-28.6,12.7-47.2c0.7-10.5-0.4-19-4.3-34.5
	l-3.1-12l-4.1-8.5c-10.4-21.8-28.8-37.4-50.7-43.2l-7.8-2l-24,0l-8,2.1c-23.7,6.2-42.4,22.9-52.3,46.6c-1.8,4.4-4,9.2-4.8,10.6
	c-0.8,1.5-2.2,6-3.1,10l-1.7,7.4l0,34l2.1,9.1c8.5,37,32,61.6,64.8,68l7,1.4l22-0.9L1236.8,1247L1236.8,1247z M425.6,1278.7
	c-0.8-1.2-17.1-49.1-36.2-106.2s-35.3-104.7-36.1-105.6c-1.6-1.9-46.3-135.4-46.3-138.4c0-1.1-1.6-6.7-3.5-12.5s-3.5-11.6-3.5-13.2
	V900l1.8-0.9c1-0.5,9.9-1.3,19.8-1.6l18-0.7l1.7,1.9c2,2.2,30.8,88.8,31.9,95.9c0.8,5.5,69.5,214.4,70.9,215.9
	c0.5,0.5,1.5,0.7,2.2,0.4l1.3-0.5l47.8-143.4c26.3-78.9,47.8-144.6,47.8-145.9c0-3.5,5.7-19.8,7.6-22l1.7-1.8h37.4l1.7,1.8
	c0.9,1,1.7,2.6,1.7,3.7c0,2.5-12.1,37.7-13.6,39.5c-0.7,0.8-26.9,76.9-58.3,169l-57.1,167.5l-1.7,1.3l-1.7,1.3H427L425.6,1278.7z
	 M456.8,1270.7c0.6-0.7,28.6-82.1,62.2-181l61.2-179.7l-1.2-3.1h-20l-1.4,2.2c-0.8,1.2-24.9,72.9-53.6,159.2s-52.8,158.9-53.6,161.2
	c-2.2,6-6.9,7-9.1,2.1c-0.6-1.2-24.7-74.2-53.7-162.2c-29-88-53.2-160.5-53.8-161.2l-1.1-1.3h-20.8l-0.5,1.3
	c-0.5,1.4,119.1,360.3,120.8,362.4l1,1.2h22.5L456.8,1270.7z M838.8,1279.7l-1.6-1.2l-1.2-210l-1-10c-0.5-5.5-1.3-13.7-1.6-18.3
	l-0.6-8.3l3.3-5h32.6l3.9,2.8l0.3,11.3c0.2,6.2,0.7,11.7,1.1,12.2l0.8,0.8l8.4-8.7c12.9-13.5,23.2-19.6,38.4-23l7.7-1.7l11.2,0.5
	c12.6,0.6,18.2,1.9,19.7,4.7l1,1.9l-3.7,34.1l-1.3,1.5l-1.3,1.5l-21.3-1.3l-7,1.2c-3.8,0.7-9.4,2.3-12.3,3.6c-3,1.3-6,2.4-6.8,2.4
	c-2.5,0-12.3,8.3-16.9,14.3c-5.9,7.8-10,16.6-13.2,28.4l-2.7,9.7l-1.1,154.2l-1.4,1.7l-1.4,1.7h-30.4L838.8,1279.7z M863.8,1270.8
	l1.2-1.2l0-138.1l1.5-9.5c2-12.4,6.5-25.8,11.7-34.5l4.1-7l7.7-7.7l7.7-7.7l8.4-4c9.9-4.8,18.1-6.8,31.4-7.9l9.8-0.8l0.7-2.5
	c0.4-1.4,0.9-5.4,1.3-9l0.6-6.5l-0.9-1.5l-0.9-1.5l-16.6-0.7l-7,1.5c-18.8,4-35.1,17.1-47.8,38.5c-2.6,4.4-5.4,8.3-6.2,8.6
	c-2.1,0.8-4.4-0.3-5.7-2.7l-1.1-2.1l-0.5-17.7l-0.5-17.7l-1.3-1.1l-1.3-1.1l-15.7,0.6l0.2,15.5c0.1,8.5,0.5,60.7,0.8,116
	s0.8,101.1,1.1,101.8l0.4,1.2h15.7L863.8,1270.8L863.8,1270.8z M1000.8,1279.2l-1.5-1.8l-0.5-123.7l-0.5-123.7l1.7-1.6l1.7-1.6h32
	l1.9,1.4l1.9,1.4l-0.2,36.3c-0.1,20-0.5,75.9-0.8,124.3l-0.5,88l-1.7,1.2l-1.7,1.2h-30.3L1000.8,1279.2z M1025.4,1271.4l1.6-0.6
	v-232.6l-1.6-0.6c-0.9-0.3-4.6-0.6-8.3-0.6h-6.7l-2.4,2.4v230.2l2.4,2.4h6.7C1020.8,1272,1024.5,1271.7,1025.4,1271.4L1025.4,1271.4
	z M1009.5,962.5c-2.2-0.8-5.7-2.8-7.7-4.5l-3.6-3l-2.8-5.7l-2.8-5.7l0.1-16l2.7-5.1c3.1-6,9.6-12,14.7-13.4c2-0.5,5.8-1,8.6-1l5.1,0
	l10.6,5.3l2.9,3.9c1.6,2.2,3.6,5.9,4.5,8.3l1.7,4.4l-0.5,7.8l-0.5,7.8l-1.8,3.5c-2.5,4.9-7.3,9.8-12,12.2l-3.9,2l-11.1,0.7
	L1009.5,962.5L1009.5,962.5z M1023.3,953.6c1.8-0.7,4.7-3,6.4-5l3.2-3.6l0.7-3.6c0.4-2,0.5-6,0.2-8.9l-0.4-5.4l-2.7-3.6
	c-1.5-2-4.1-4.3-5.8-5.2l-3.1-1.6l-10.7,0.9l-3.1,2.9c-3.9,3.6-6.8,9.8-6.8,14.4C1001,949,1012.1,958.3,1023.3,953.6L1023.3,953.6z
	 M794,835c-26.9-2.7-48.1-12.8-67-31.9c-16.6-16.7-27.4-38.5-33.6-68.1l-1.8-8.5l0-47l2.3-10.4c12.6-56.5,50-93.2,100-98.1l10.8-1.1
	l10.4,1.1c12.3,1.3,20.8,3.3,29.8,7c33.8,14,57.4,46,64.6,87.5l1.7,10l0.3,37.6l-1.5,1l-1.5,1l-177.4,0l-3.1,3.1l0.5,2.2
	c0.3,1.2,1,5.1,1.5,8.7c2.4,14.5,8.7,28.9,17.8,40.9l5.6,7.4l7.3,5.8c8.8,7,17.6,11.3,27.2,13.3l7.2,1.5h21.5l7.9-2
	c20.1-5.1,36.6-16.8,48.5-34.1c4-5.9,6.2-7.4,8.5-6.1c0.8,0.4,6.4,5.4,12.4,11.1l11,10.3v1.8c0,2.1-8.2,14.3-14.8,22
	c-10.3,12.1-27,22.8-44.5,28.5C831,834.2,809.1,836.6,794,835L794,835z M816.6,826c20-1.8,38.7-8,51.8-17.4
	c7.4-5.3,20.1-18.6,23.4-24.4l2.3-4.2l-5.7-6c-3.1-3.3-6.3-6-6.9-6s-3.6,2.8-6.4,6.2c-13.5,16-31.7,27-52.1,31.3l-7.1,1.5h-10.3
	c-11.4,0-22.3-1.7-30-4.8c-22.1-8.7-41.6-30.4-50.3-55.7c-2.7-7.9-6.2-26.3-6.2-32.5v-4.9l4.4-3.1H902l0.7-2.6
	c0.9-3.7-0.5-28.3-2.2-38c-6.9-39.9-32.3-71.3-66.2-81.8l-8.2-2.6l-21.9-2.2l-10,1.1c-23.3,2.6-42.2,11.4-58.1,27.2
	c-16.9,16.8-27.6,36.8-33.2,62.3l-2,9l-1.1,35.1l1.2,10.4c2.3,20,8.2,38.3,17.3,53.5l5.2,8.8l8.4,8.9c19.3,20.5,40.1,29.7,71.6,31.7
	C804.6,826.9,810.5,826.5,816.6,826L816.6,826z M720.6,685.2c-2.2-2.4-2.1-5.1,0.4-15.1c2.7-10.7,6.6-20.2,12.6-30.4l4.8-8.2
	l8.5-8.6c17.3-17.5,32.1-23.8,55.6-23.9l11.1,0l7.7,2c9.2,2.3,22.9,9.3,30.9,15.5c3.1,2.5,8.2,7.5,11.3,11.3l5.6,6.8l4.9,10
	c5.9,11.9,7.9,19.1,8.6,30.6l0.6,8.6l-3.4,3.4H722.3L720.6,685.2z M873,676.5l1.2-1.5l-1.2-6.8c-2.6-15.1-11.1-30.4-22.8-41.4
	c-8.1-7.6-15.3-12-25.4-15.7l-7.3-2.7l-30,0l-6.5,2.3c-22.2,7.7-40.9,28.4-49.2,54.5l-3.1,9.7l2.5,3h140.5L873,676.5L873,676.5z
	 M1057,834.9c-35.3-3.4-65.1-22.8-83.8-54.5c-15.2-25.7-22.1-63.9-17.7-98.5c2.5-19.9,6.8-33.8,15.6-51
	c14.4-27.9,39.8-49.1,67.9-56.9c4.1-1.1,12.3-2.6,18.2-3.2l10.7-1.1l10.9,1.1c25,2.5,44.6,11.7,61.8,28.9
	c17.6,17.6,28.7,40.8,33,68.9l1.5,9.8l0,34.1l-2.4,2.4H994.4l-1.2,1.2c-1.7,1.7-1.5,4.9,1.3,17.3l2.5,11l4,8.4
	c5.4,11.2,11.3,19.4,20.1,27.5l7.2,6.7l8.1,4c4.5,2.2,11.3,4.7,15.1,5.5l7,1.5l21.2,0l7.9-2c8.5-2.2,21.8-8.1,28.7-12.9
	c6.4-4.4,14.9-13.3,19.6-20.5c2.3-3.5,4.9-6.7,5.7-7c2.4-0.9,5.1,1,16.1,11.3l10.2,9.6l0,2.3c0,6-18.7,28.4-31.2,37.2
	c-14,9.9-35.5,17.2-56.2,19C1068.5,836.1,1069.2,836.1,1057,834.9L1057,834.9z M1091.6,824.5c16.2-2.7,30.4-8.6,42.4-17.6
	c10.5-7.9,23-22.6,23-27c0-1.8-10.7-11.8-12.6-11.8c-0.7,0-2.9,2.2-4.9,5c-10.9,14.8-32.2,27.9-52.9,32.5l-7.7,1.7l-26.4-1l-6-1.7
	c-30.5-8.4-54.3-36.5-61.3-72.2c-1.1-5.5-2.2-12.7-2.5-16l-0.6-6.1l1.4-1.9l1.4-1.9l180.7-1l-0.2-34l-1.7-8.3
	c-7.3-34.8-26-60.9-53.2-74.6c-9.1-4.6-19.1-7.3-31.8-8.7l-10.2-1.1l-7,0.6c-25.7,2.4-42.8,9.8-61,26.8
	C978,627,965.1,658.4,963.3,696l-0.6,12.5l1.2,11c4,37.3,17,64.8,39.6,83.8C1027.4,823.4,1056.3,830.3,1091.6,824.5L1091.6,824.5z
	 M984,684.9l-2-2l0.6-3.7c4.2-24.7,16.7-47.5,34.6-62.8l6.4-5.4l18-9l14-2.9l21.2,0l7.9,2c34.1,8.7,58.6,38.3,62,74.9l0.6,6.8
	l-4.3,4.3H986L984,684.9z M1136.4,671.5c-0.2-14.9-11.9-36.4-26-47.8c-7-5.7-19.6-12.1-27.9-14.2l-6-1.5h-21.3l-15.8,4l-6.5,3.9
	c-13.7,8.2-24.9,20.7-32.6,36.6c-4.8,9.8-8.2,21.1-7.2,23.8l0.7,1.7l142.6-0.5L1136.4,671.5L1136.4,671.5z M558.2,830
	c-1.2-0.5-2.8-2.1-3.4-3.5l-1.2-2.5l2.4-10.5l-0.5-51.5c-0.3-28.3-1.1-75.8-1.8-105.5s-1.2-58.8-1.2-64.6l0.1-10.6l1.1-2l1.1-2
	l4.8-0.6c2.6-0.3,10-0.9,16.4-1.2l11.6-0.6l4.2,4.2l0,10.2c0,5.6,0.4,10.9,0.9,11.7l0.9,1.4l7.8-8.3c8.5-9,16.3-14.8,25.8-19.1
	c12.3-5.6,30.5-7.5,43-4.6l5.9,1.4l2,2l2,2l-1.6,12.8c-1.9,14.7-3.7,22.2-5.8,23.3c-0.8,0.4-3,0.5-4.8,0.1c-4-0.8-18.3,0.3-25.6,1.9
	c-2.8,0.6-8.3,2.7-12.3,4.6l-7.3,3.5l-13.5,13.3l-3.6,6.5c-2,3.6-4.7,9.9-6.1,14s-3.3,9.5-4.3,12l-1.8,4.5l-1,154.4l-1,1
	c-0.5,0.5-5.3,1.2-10.5,1.5s-12,0.8-15,1.1C563,830.7,559.5,830.5,558.2,830L558.2,830z M584.1,745.5l0.6-74l1.6-6.7
	c7.2-29.2,20.3-47,41.8-56.7c9-4,14.8-5.3,27.3-6l11-0.6l0.7-3.2c0.4-1.8,1-6.3,1.3-10.2l0.7-6.9l-2.3-0.8c-3.5-1.2-19-0.8-25,0.6
	c-2.9,0.7-8.7,2.8-12.7,4.7l-7.4,3.5l-8.8,8.5c-8.1,7.8-10.4,10.8-19.3,24.8l-3.2,5l-4.4,0.6l-3.5-5.3l-0.4-16.2
	c-0.2-8.9-0.6-17.2-0.9-18.5l-0.5-2.3l-17.4,0.6l0.2,14.5c0.1,8,0.5,60,0.8,115.5s0.8,101.6,1.1,102.3l0.4,1.3l17.5-0.6L584.1,745.5
	z M301,827l-1.1-2l-0.6-187.4l-0.6-187.4l2.6-3.1h206.7l1,1.9l1,1.9v33l-3.1,3.1H342.2l-2.3,2.8l0.5,47.8
	c0.3,26.3,0.8,53.3,1.1,59.9l0.6,12.1l9.7,0.6c5.3,0.4,39.2,0.7,75.2,0.7l65.5,0l5,2.5l0.7,11.5c0.4,6.3,0.9,13.5,1,16
	c0.4,5.4-0.9,11-2.5,11.1c-0.7,0.1-23.9,0.1-51.7,0s-62.2,0.2-76.5,0.6l-26,0.7l-0.7,55.5c-0.4,30.5-1,69.4-1.3,86.4l-0.6,30.9
	l-1.1,1.3l-1.1,1.3h-35.7L301,827z M330.7,733.1l0.3-86.4l3.3-3.6h152.3l2.4-2.4v-18.5l-3.9-2.1h-151l-3.1-3.1V482.4l3.1-4.4H500
	l0.6-2.2c0.3-1.2,0.4-6.1,0.3-10.8l-0.3-8.5L310.6,456l-0.8,1.3c-0.9,1.5-1.1,358.8-0.2,361.2l0.6,1.6l20.3-0.6L330.7,733.1z
	 M1053,449c0-0.5,1.2-1,2.8-1l2.8,0l-1.5,1C1055,450.3,1053,450.3,1053,449z M984.9,440.4c-2.2-5.6-5.9-16.1-5.9-16.6
	c0-0.7,7.9-4.2,8.4-3.7c1.5,1.6,11.5,21.3,11.1,21.8c-0.3,0.3-3.2,0.7-6.5,1l-6,0.4L984.9,440.4z M1121,438.1l-2.5-0.7l1.2-0.8
	c0.7-0.4,1.2-2.3,1.2-4.2v-3.4l-2.1-1.5l-2.1-1.5l3.4-0.6c21.1-3.6,49-3.1,54.6,1l1.8,1.3l-5,2.1
	C1155.1,437,1131.1,440.9,1121,438.1L1121,438.1z M967,427c0-0.5,0.5-1,1-1s1,0.5,1,1s-0.5,1-1,1S967,427.5,967,427z M1148,412
	c0-1.4,2.1-2.2,3.2-1.2l1,1l-2.1,0.5C1148.9,412.6,1148,412.4,1148,412L1148,412z M1131,411.6c0-0.2,0.7-0.9,1.5-1.6l1.5-1.2v1
	c0,0.6-0.7,1.3-1.5,1.6S1131,411.8,1131,411.6L1131,411.6z M1143,401c4.7-4.5,11.7-10.9,15.5-14.3l7-6.2l-5,5.3
	c-2.8,2.9-9.7,9.3-15.5,14.3l-10.5,9L1143,401z"/>
</svg>
